<svg width="171" height="88" viewBox="0 0 171 88" fill="none" xmlns="http://www.w3.org/2000/svg">
<g clip-path="url(#clip0_729_1091)">
<path d="M171 0H0V88H171V0Z" fill="#3C3C3B"/>
<path d="M14.7421 61.4902V64.5856H9.48273V77.3701H5.80347V61.4902H14.7421Z" fill="white"/>
<path d="M22.3636 67.9429V66.7517H25.8051V77.3702H22.3636V76.0856C21.6456 77.1812 20.596 77.7278 19.208 77.7278C17.5662 77.7278 16.2354 77.188 15.2155 76.1084C14.1796 75.0128 13.6628 73.6895 13.6628 72.1316C13.6628 70.3687 14.2116 68.9406 15.3115 67.845C16.2834 66.877 17.5182 66.3918 19.016 66.3918C20.5137 66.3918 21.5976 66.9089 22.3614 67.9384L22.3636 67.9429ZM19.878 69.3483C19.128 69.3483 18.4992 69.6034 17.9892 70.109C17.4633 70.6329 17.2003 71.2752 17.2003 72.0382C17.2003 72.8012 17.4404 73.4344 17.9183 73.9423C18.4443 74.4981 19.1211 74.7759 19.9489 74.7759C20.6509 74.7759 21.2477 74.53 21.7417 74.038C22.2996 73.5141 22.5786 72.8468 22.5786 72.0382C22.5786 71.2296 22.3156 70.5782 21.7897 70.0862C21.2798 69.5942 20.6418 69.3483 19.878 69.3483Z" fill="white"/>
<path d="M29.0794 69.9428L27.7646 67.6583C28.3386 67.2939 28.9285 67.0001 29.5322 66.7769C30.2502 66.524 31.0849 66.3965 32.043 66.3965C33.7008 66.3965 34.9036 66.7609 35.6514 67.492C36.1773 68 36.4403 68.6514 36.4403 69.444C36.4403 70.2366 36.2253 70.8083 35.7954 71.2525C35.5096 71.5372 35.2055 71.7376 34.8876 71.8469C35.4776 71.9904 35.9555 72.2433 36.3213 72.6077C36.7993 73.0678 37.0394 73.6554 37.0394 74.3706C37.0394 75.227 36.7284 75.965 36.1064 76.5845C35.3244 77.3452 34.0187 77.7279 32.187 77.7279C31.0871 77.7279 30.1153 77.5684 29.2715 77.2519C28.5695 76.9831 27.9338 76.6096 27.3599 76.1335L28.8188 73.8718C29.2487 74.2362 29.6877 74.5232 30.1336 74.7282C30.6595 74.9514 31.2083 75.0607 31.7823 75.0607C32.3082 75.0607 32.7221 74.9742 33.0262 74.7988C33.3441 74.6075 33.5042 74.3387 33.5042 73.9902C33.5042 73.6736 33.3372 73.4345 33.0034 73.275C32.7015 73.1475 32.2854 73.0837 31.7594 73.0837H30.4697V70.7514H31.4507C32.0087 70.7514 32.4386 70.6876 32.7404 70.5601C33.0743 70.4006 33.2412 70.1637 33.2412 69.8449C33.2412 69.5442 33.0651 69.3142 32.7153 69.1547C32.4134 69.0272 32.0544 68.9634 31.6405 68.9634C31.1466 68.9634 30.6755 69.0591 30.2296 69.2481C29.7837 69.4394 29.4019 69.6695 29.0817 69.9383L29.0794 69.9428Z" fill="white"/>
<path d="M49.9477 77.3701L48.7518 74.3704H42.7286L41.5098 77.3701H37.6865L44.1167 61.4902H47.4872L53.7733 77.3701H49.95H49.9477ZM43.8057 71.5621H47.7502L45.7905 66.2301L43.8057 71.5621Z" fill="white"/>
<path d="M55.0746 66.7518H60.7867C62.0146 66.7518 62.8973 66.9818 63.4392 67.4419C64.0132 67.9339 64.299 68.624 64.299 69.5123C64.299 70.2275 64.0841 70.7969 63.6542 71.2274C63.4301 71.4825 63.1351 71.6716 62.7692 71.7991C63.3912 71.9267 63.908 72.1795 64.3219 72.5598C64.7838 73.0199 65.0147 73.6235 65.0147 74.3683C65.0147 75.2088 64.7518 75.8921 64.2258 76.4159C63.5879 77.0514 62.7029 77.368 61.5733 77.368H55.0723V66.7495L55.0746 66.7518ZM58.516 70.9905H59.9269C60.2928 70.9905 60.5809 70.9199 60.7867 70.7764C61.0245 70.601 61.1457 70.3391 61.1457 69.9906C61.1457 69.674 61.0428 69.428 60.8347 69.2527C60.6426 69.1092 60.3248 69.0386 59.8789 69.0386H58.516V70.9905ZM58.516 75.0858H60.0687C60.5466 75.0858 60.8896 74.9901 61.0954 74.8011C61.3195 74.6097 61.4292 74.3341 61.4292 73.9674C61.4292 73.6668 61.3172 73.4208 61.0954 73.2295C60.8713 73.0382 60.4825 72.9448 59.9246 72.9448H58.5137V75.0881L58.516 75.0858Z" fill="white"/>
<path d="M74.9023 69.5144H72.0348V77.3701H68.5933V69.5144H65.7258V66.7539H74.9046V69.5144H74.9023Z" fill="white"/>
<path d="M88.3754 72.0609C88.3754 73.6325 87.8403 74.949 86.7747 76.0126C85.6268 77.156 84.0741 77.7277 82.1144 77.7277C80.1548 77.7277 78.5998 77.156 77.4542 76.0126C76.3863 74.949 75.8535 73.6325 75.8535 72.0609C75.8535 70.4893 76.3863 69.1728 77.4542 68.1091C78.6021 66.9657 80.1548 66.394 82.1144 66.394C84.0741 66.394 85.6291 66.9657 86.7747 68.1091C87.8426 69.1728 88.3754 70.4893 88.3754 72.0609ZM82.1121 69.3004C81.3301 69.3004 80.6853 69.5554 80.1753 70.0634C79.6654 70.5713 79.3864 71.2546 79.3864 72.0632C79.3864 72.8717 79.6494 73.5391 80.1753 74.063C80.6853 74.5709 81.3393 74.8237 82.135 74.8237C82.9308 74.8237 83.5367 74.5709 84.0467 74.063C84.5726 73.5391 84.8356 72.8717 84.8356 72.0632C84.8356 71.2546 84.5726 70.5872 84.0467 70.0634C83.5367 69.5554 82.8919 69.3004 82.1099 69.3004H82.1121Z" fill="white"/>
<path d="M102.068 72.6577V76.8714C100.936 77.4431 99.7652 77.7278 98.5533 77.7278C95.9556 77.7278 93.8679 76.958 92.2901 75.4183C90.6322 73.8148 89.8044 71.8082 89.8044 69.3961C89.8044 66.9841 90.6322 65.023 92.2901 63.4195C93.8679 61.8958 95.8504 61.135 98.2423 61.135C99.4222 61.135 100.696 61.4288 102.066 62.0165V66.2552C100.998 65.1278 99.7561 64.5652 98.336 64.5652C97.0303 64.5652 95.9465 64.9774 95.0844 65.802C94.0805 66.77 93.5797 67.9931 93.5797 69.469C93.5797 70.9449 94.0417 72.0792 94.9655 72.9698C95.8573 73.8581 97.0052 74.3022 98.4069 74.3022C99.7286 74.3022 100.947 73.7556 102.063 72.66L102.068 72.6577Z" fill="#F96E10"/>
<path d="M115.1 72.3V72.6576H107.14C107.14 73.3888 107.355 73.9901 107.785 74.4661C108.199 74.9102 108.789 75.1335 109.555 75.1335C110.129 75.1335 110.591 75.031 110.94 74.8237C111.21 74.6802 111.457 74.3864 111.681 73.9422L114.931 74.2748C114.565 75.4341 113.879 76.3224 112.875 76.9419C111.999 77.4658 110.874 77.7277 109.504 77.7277C107.689 77.7277 106.269 77.2198 105.249 76.204C104.181 75.1403 103.648 73.776 103.648 72.1087C103.648 70.4415 104.19 69.0293 105.274 67.9178C106.294 66.902 107.657 66.394 109.36 66.394C111.16 66.394 112.571 66.927 113.591 67.9884C114.595 69.0521 115.095 70.487 115.095 72.2978L115.1 72.3ZM107.261 70.61H111.921C111.793 70.1021 111.562 69.6898 111.229 69.3732C110.799 68.9769 110.257 68.7788 109.603 68.7788C108.901 68.7788 108.32 69.0088 107.858 69.4689C107.54 69.8014 107.341 70.1841 107.261 70.6123V70.61Z" fill="#F96E10"/>
<path d="M120.487 76.1563V82.823H117.046V66.7541H120.487V68.0159C121.315 66.9363 122.424 66.3965 123.81 66.3965C125.323 66.3965 126.581 66.8976 127.585 67.8952C128.653 68.9589 129.186 70.3391 129.186 72.0383C129.186 73.7374 128.621 75.1723 127.489 76.2998C126.533 77.2518 125.33 77.7279 123.881 77.7279C122.431 77.7279 121.235 77.204 120.487 76.1563ZM122.973 69.3483C122.223 69.3483 121.587 69.6103 121.061 70.1341C120.519 70.6739 120.249 71.3254 120.249 72.0861C120.249 72.8013 120.503 73.4276 121.015 73.9675C121.557 74.5073 122.211 74.776 122.975 74.776C123.677 74.776 124.29 74.53 124.816 74.0381C125.374 73.5142 125.653 72.84 125.653 72.0155C125.653 71.2388 125.381 70.5942 124.841 70.0863C124.315 69.5943 123.693 69.3483 122.977 69.3483H122.973Z" fill="#F96E10"/>
<path d="M131.173 66.7518H136.885C138.113 66.7518 138.996 66.9818 139.538 67.4419C140.112 67.9339 140.397 68.624 140.397 69.5123C140.397 70.2275 140.182 70.7969 139.753 71.2274C139.528 71.4825 139.233 71.6716 138.868 71.7991C139.49 71.9267 140.006 72.1795 140.42 72.5598C140.882 73.0199 141.113 73.6235 141.113 74.3683C141.113 75.2088 140.85 75.8921 140.324 76.4159C139.686 77.0514 138.801 77.368 137.672 77.368H131.171V66.7495L131.173 66.7518ZM134.614 70.9905H136.025C136.391 70.9905 136.679 70.9199 136.885 70.7764C137.123 70.601 137.244 70.3391 137.244 69.9906C137.244 69.674 137.141 69.428 136.933 69.2527C136.741 69.1092 136.423 69.0386 135.977 69.0386H134.614V70.9905ZM134.614 75.0858H136.167C136.645 75.0858 136.988 74.9901 137.194 74.8011C137.418 74.6097 137.528 74.3341 137.528 73.9674C137.528 73.6668 137.416 73.4208 137.194 73.2295C136.97 73.0382 136.581 72.9448 136.023 72.9448H134.612V75.0881L134.614 75.0858Z" fill="#F96E10"/>
<path d="M143.034 66.7517H146.475V72.8217L151.017 66.7517H154.22V77.3702H150.779V71.2045L146.238 77.3702H143.034V66.7517Z" fill="#F96E10"/>
<path d="M164.712 66.991V70.1091C164.058 69.5693 163.31 69.3005 162.464 69.3005C161.666 69.3005 161.014 69.5556 160.504 70.0635C159.994 70.5714 159.715 71.2548 159.715 72.0633C159.715 72.8241 159.955 73.4595 160.433 73.9675C160.959 74.5391 161.652 74.8239 162.512 74.8239C163.324 74.8239 164.058 74.546 164.712 73.9902V77.0856C163.93 77.5138 163.022 77.7279 161.986 77.7279C160.328 77.7279 158.951 77.1972 157.852 76.1335C156.736 75.0539 156.178 73.7055 156.178 72.0861C156.178 70.4667 156.768 69.0067 157.948 67.8952C159.015 66.8953 160.369 66.3965 162.011 66.3965C162.967 66.3965 163.868 66.5946 164.712 66.991Z" fill="#F96E10"/>
<path d="M64.5506 41.3102L46.8265 51.4845C46.4675 51.6895 46.0262 51.6895 45.6695 51.4845L41.5397 49.1066C40.9863 48.7878 40.7965 48.0817 41.1167 47.5305L43.943 42.6631C44.1694 42.2714 44.6062 42.0504 45.0566 42.096C49.6368 42.5538 54.2742 40.3672 56.7278 36.1421C58.9711 32.2792 58.8201 27.6897 56.7278 24.0842C56.2842 23.3189 55.1706 23.328 54.7247 24.0933L50.5629 31.2611C50.2428 31.8123 49.5339 32.0013 48.9806 31.6825L43.5406 28.5484C42.9872 28.2295 42.7974 27.5235 43.1175 26.9723L47.2793 19.8044C47.7229 19.0391 47.1741 18.0734 46.2891 18.0711C42.1091 18.0643 38.0388 20.2235 35.7979 24.0842C33.3443 28.3092 33.7536 33.4044 36.4359 37.1307C36.7011 37.4974 36.724 37.9848 36.4976 38.3743L33.6713 43.2416C33.3511 43.7928 32.6423 43.9819 32.0889 43.663L27.9591 41.2851C27.6001 41.0779 27.3806 40.6975 27.3806 40.2852L27.3966 19.9092C27.3966 19.4969 27.6184 19.1166 27.9774 18.9116L45.7015 8.73724C46.0605 8.53225 46.5018 8.53225 46.8585 8.73724L64.5643 18.9389C64.9233 19.1462 65.1428 19.5266 65.1428 19.9388L65.1268 40.3148C65.1268 40.7271 64.905 41.1075 64.546 41.3125L64.5506 41.3102Z" fill="#F96E10"/>
<path d="M102.882 34.0422V23.0114V7.1543H54.1187" stroke="white" stroke-linecap="round" stroke-linejoin="round"/>
<path d="M102.882 41.8774V53.0517V53.0562H81.4399" stroke="white" stroke-linecap="round" stroke-linejoin="round"/>
<path d="M54.1187 53.0562H57.7659" stroke="white" stroke-linecap="round" stroke-linejoin="round"/>
<path d="M102.882 34.0422V23.0115C104.503 22.9363 106.822 22.8543 109.621 22.868C113.341 22.8862 115.226 22.9067 116.492 23.3577C118.095 23.9248 119.079 24.7539 123.373 29.3821C124.937 31.0721 126.853 33.1744 129.026 35.6275C129.517 35.7664 140.445 38.9483 142.563 43.4809C143.185 44.8042 143.194 46.0865 143.194 46.0865C143.224 48.9108 141.134 50.8218 140.866 51.0587C139.103 52.6257 137.669 52.899 136.704 53.0607" stroke="white" stroke-linecap="round" stroke-linejoin="round"/>
<path d="M113.259 53.0403C109.241 53.054 107.73 53.0608 102.88 53.0517V41.8774" stroke="white" stroke-linecap="round" stroke-linejoin="round"/>
<path d="M124.997 60.0553C128.79 60.0553 131.866 56.992 131.866 53.2132C131.866 49.4344 128.79 46.3711 124.997 46.3711C121.203 46.3711 118.127 49.4344 118.127 53.2132C118.127 56.992 121.203 60.0553 124.997 60.0553Z" stroke="white" stroke-miterlimit="10"/>
<path d="M69.6819 59.8983C73.4757 59.8983 76.5511 56.835 76.5511 53.0562C76.5511 49.2774 73.4757 46.2141 69.6819 46.2141C65.8882 46.2141 62.8127 49.2774 62.8127 53.0562C62.8127 56.835 65.8882 59.8983 69.6819 59.8983Z" stroke="white" stroke-miterlimit="10"/>
</g>
<defs>
<clipPath id="clip0_729_1091">
<rect width="171" height="88" rx="6" fill="white"/>
</clipPath>
</defs>
</svg>
