<svg width="80" height="80" viewBox="0 0 80 80" fill="none" xmlns="http://www.w3.org/2000/svg">
<path d="M42.6666 66.6667C44.5125 66.6667 46.317 66.1193 47.8519 65.0937C49.3868 64.0682 50.583 62.6105 51.2895 60.905C51.9959 59.1996 52.1807 57.323 51.8206 55.5125C51.4605 53.702 50.5715 52.039 49.2662 50.7337C47.961 49.4284 46.2979 48.5395 44.4874 48.1793C42.6769 47.8192 40.8003 48.004 39.0949 48.7105C37.3894 49.4169 35.9318 50.6132 34.9062 52.148C33.8806 53.6829 33.3333 55.4874 33.3333 57.3333C33.336 59.8078 34.3203 62.1802 36.07 63.9299C37.8197 65.6797 40.1921 66.6639 42.6666 66.6667ZM42.6666 50.6667C43.9851 50.6667 45.2741 51.0577 46.3704 51.7902C47.4667 52.5227 48.3212 53.5639 48.8258 54.7821C49.3304 56.0003 49.4624 57.3407 49.2052 58.6339C48.9479 59.9271 48.313 61.115 47.3806 62.0474C46.4483 62.9797 45.2604 63.6147 43.9672 63.8719C42.674 64.1291 41.3335 63.9971 40.1154 63.4925C38.8972 62.9879 37.856 62.1335 37.1235 61.0371C36.3909 59.9408 35.9999 58.6519 35.9999 57.3333C36.0019 55.5659 36.705 53.8713 37.9548 52.6215C39.2046 51.3717 40.8991 50.6687 42.6666 50.6667Z" fill="#F1721B"/>
<path d="M61.2219 62.1744L64.3109 61.4337C64.6022 61.3639 64.8615 61.198 65.047 60.9628C65.2325 60.7275 65.3334 60.4367 65.3334 60.1371V54.5294C65.3334 54.2298 65.2325 53.939 65.047 53.7037C64.8615 53.4685 64.6022 53.3026 64.3109 53.2327L61.222 52.4922C60.7241 52.3729 60.2614 52.1373 59.872 51.8048C59.4825 51.4723 59.1773 51.0524 58.9812 50.5793C58.7852 50.1062 58.7039 49.5935 58.744 49.083C58.7841 48.5725 58.9445 48.0787 59.212 47.6421L60.8827 44.9157C61.0392 44.6604 61.1052 44.3598 61.07 44.0624C61.0348 43.7649 60.9005 43.488 60.6887 43.2762L56.7234 39.3116C56.5116 39.0998 56.2347 38.9656 55.9373 38.9304C55.64 38.8952 55.3394 38.9611 55.084 39.1176L52.3577 40.7882C51.9211 41.0558 51.4273 41.2161 50.9168 41.2562C50.4064 41.2963 49.8936 41.215 49.4206 41.019C48.9475 40.8229 48.5276 40.5177 48.1952 40.1282C47.8627 39.7388 47.6271 39.2762 47.5077 38.7782L46.767 35.6892C46.6972 35.3979 46.5313 35.1386 46.296 34.9531C46.0608 34.7676 45.77 34.6667 45.4704 34.6667H39.8627C39.5631 34.6667 39.2723 34.7676 39.037 34.9531C38.8018 35.1386 38.6359 35.3979 38.566 35.6892L37.8255 38.7781C37.7061 39.276 37.4706 39.7387 37.1381 40.1281C36.8056 40.5176 36.3857 40.8229 35.9126 41.0189C35.4395 41.2149 34.9268 41.2962 34.4163 41.2561C33.9058 41.216 33.412 41.0556 32.9754 40.7881L30.249 39.1174L28.8557 41.3912L31.5819 43.0617C32.3774 43.5492 33.2769 43.8414 34.207 43.9146C35.1371 43.9877 36.0713 43.8396 36.9332 43.4825C37.7951 43.1253 38.5602 42.5693 39.166 41.8597C39.7718 41.1502 40.201 40.3073 40.4185 39.4001L40.914 37.3334H44.419L44.9145 39.4001C45.1321 40.3073 45.5613 41.1502 46.167 41.8598C46.7727 42.5693 47.5378 43.1254 48.3997 43.4826C49.2616 43.8398 50.1958 43.9878 51.1259 43.9147C52.056 43.8416 52.9556 43.5494 53.751 43.0619L55.581 41.9406L58.0595 44.4189L56.9382 46.2489C56.4508 47.0444 56.1585 47.944 56.0854 48.8741C56.0123 49.8042 56.1603 50.7383 56.5175 51.6002C56.8746 52.4621 57.4307 53.2273 58.1402 53.833C58.8498 54.4388 59.6926 54.868 60.5999 55.0856L62.6665 55.5809V59.0859L60.5999 59.5814C59.6926 59.7989 58.8498 60.2281 58.1402 60.8339C57.4306 61.4396 56.8745 62.2047 56.5174 63.0666C56.1602 63.9285 56.0121 64.8627 56.0852 65.7928C56.1583 66.7229 56.4506 67.6224 56.938 68.4179L58.0594 70.2479L55.581 72.7264L53.751 71.6051C52.9556 71.1176 52.056 70.8254 51.1259 70.7523C50.1958 70.6791 49.2616 70.8272 48.3997 71.1843C47.5378 71.5415 46.7727 72.0976 46.1669 72.8071C45.5612 73.5167 45.1319 74.3595 44.9144 75.2667L44.419 77.3334H40.914L40.4185 75.2667C40.201 74.3595 39.7718 73.5166 39.1661 72.8071C38.5603 72.0975 37.7952 71.5414 36.9334 71.1842C36.0715 70.8271 35.1373 70.679 34.2072 70.7521C33.2771 70.8252 32.3775 71.1175 31.582 71.6049L28.8559 73.2754L30.2492 75.5492L32.9754 73.8786C33.412 73.6111 33.9058 73.4507 34.4162 73.4106C34.9267 73.3705 35.4395 73.4518 35.9125 73.6479C36.3855 73.8439 36.8055 74.1491 37.1379 74.5386C37.4704 74.928 37.706 75.3906 37.8254 75.8886L38.566 78.9776C38.6359 79.2689 38.8018 79.5282 39.037 79.7137C39.2723 79.8992 39.5631 80.0001 39.8627 80.0001H45.4704C45.77 80.0001 46.0608 79.8992 46.296 79.7137C46.5313 79.5282 46.6972 79.2689 46.767 78.9776L47.5075 75.8887C47.6269 75.3908 47.8625 74.9281 48.195 74.5387C48.5275 74.1492 48.9474 73.844 49.4205 73.6479C49.8935 73.4519 50.4063 73.3706 50.9168 73.4107C51.4273 73.4508 51.9211 73.6112 52.3577 73.8787L55.084 75.5494C55.3394 75.7058 55.64 75.7718 55.9374 75.7366C56.2348 75.7014 56.5117 75.5671 56.7235 75.3554L60.6884 71.3904C60.9002 71.1786 61.0345 70.9017 61.0696 70.6043C61.1048 70.3069 61.0389 70.0063 60.8824 69.7509L59.2117 67.0246C58.9442 66.5879 58.7839 66.0942 58.7438 65.5837C58.7037 65.0732 58.7849 64.5605 58.981 64.0875C59.177 63.6144 59.4823 63.1945 59.8717 62.862C60.2612 62.5296 60.7238 62.294 61.2217 62.1746L61.2219 62.1744Z" fill="#F1721B"/>
<path d="M78.6667 37.3333H73.3333V30.6666C73.3333 30.313 73.1929 29.9738 72.9428 29.7238C72.6928 29.4737 72.3536 29.3333 72 29.3333H66.6667C66.313 29.3333 65.9739 29.4737 65.7239 29.7238C65.4738 29.9738 65.3333 30.313 65.3333 30.6666V37.3333H61.3333V39.9999H77.3333V45.3333H62.6667V47.9999H77.3333V53.3333H68V55.9999H77.3333V61.3333H68V63.9999H77.3333V69.3333H64V71.9999H65.3333V78.6666C65.3333 79.0202 65.4738 79.3593 65.7239 79.6094C65.9739 79.8594 66.313 79.9999 66.6667 79.9999H72C72.3536 79.9999 72.6928 79.8594 72.9428 79.6094C73.1929 79.3593 73.3333 79.0202 73.3333 78.6666V71.9999H78.6667C79.0203 71.9999 79.3594 71.8594 79.6095 71.6094C79.8595 71.3593 80 71.0202 80 70.6666V38.6666C80 38.313 79.8595 37.9738 79.6095 37.7238C79.3594 37.4737 79.0203 37.3333 78.6667 37.3333ZM70.6667 37.3333H68V31.9999H70.6667V37.3333ZM70.6667 77.3333H68V71.9999H70.6667V77.3333ZM20.3802 38.2866L19.6198 40.8428C22.6457 41.7428 24 43.0769 24 43.9999C24 44.8281 22.9567 45.8063 21.2772 46.5526C19.1773 47.4859 16.3562 47.9999 13.3333 47.9999C6.822 47.9999 2.66667 45.6308 2.66667 43.9999C2.66667 43.0769 4.021 41.7428 7.04683 40.8428L6.28667 38.2866C2.29133 39.4749 0 41.5576 0 43.9999V73.7143C0 75.6124 1.541 77.2938 4.33933 78.4484C6.7635 79.4489 9.95767 79.9999 13.3333 79.9999C16.709 79.9999 19.9032 79.4489 22.3273 78.4484C25.1257 77.2938 26.6667 75.6124 26.6667 73.7143V43.9999C26.6667 41.5576 24.3753 39.4753 20.3802 38.2866ZM5.33333 75.9738C3.71283 75.3004 2.66667 74.4151 2.66667 73.7144V70.7628C3.50127 71.3019 4.39629 71.7413 5.33333 72.0718V75.9738ZM12 77.3009C10.6548 77.2431 9.31678 77.0727 8 76.7916V72.8166C9.31848 73.0835 10.656 73.2461 12 73.3027V77.3009ZM18.6667 76.7916C17.3499 77.0727 16.0119 77.2431 14.6667 77.3009V73.3027C16.0107 73.2461 17.3482 73.0836 18.6667 72.8168V76.7916ZM24 73.7144C24 74.4151 22.9538 75.3004 21.3333 75.9738V72.0716C22.2704 71.7412 23.1654 71.3019 24 70.7628V73.7144ZM24 66.6666C24 67.4948 22.9567 68.4729 21.2772 69.2193C19.1773 70.1526 16.3562 70.6666 13.3333 70.6666C6.822 70.6666 2.66667 68.2974 2.66667 66.6666V48.0961C5.05933 49.6791 8.87367 50.6666 13.3333 50.6666C17.793 50.6666 21.6073 49.6791 24 48.0961V66.6666Z" fill="#F1721B"/>
<path d="M5.33325 52H7.99992V66.6667H5.33325V52ZM11.9999 53.3333H14.6666V68H11.9999V53.3333ZM18.6666 52H21.3333V66.6667H18.6666V52ZM11.9999 33.3333C11.9999 32.9797 12.1404 32.6406 12.3904 32.3905C12.6405 32.1405 12.9796 32 13.3333 32C13.6869 32 14.026 32.1405 14.2761 32.3905C14.5261 32.6406 14.6666 32.9797 14.6666 33.3333V44H17.3333V33.3333C17.3333 32.2725 16.9118 31.2551 16.1617 30.5049C15.4115 29.7548 14.3941 29.3333 13.3333 29.3333C12.2724 29.3333 11.255 29.7548 10.5048 30.5049C9.75468 31.2551 9.33325 32.2725 9.33325 33.3333V44H11.9999V33.3333ZM15.9999 26.6667H35.3333L38.9333 31.4667C39.0574 31.6323 39.2185 31.7667 39.4036 31.8592C39.5888 31.9518 39.7929 32 39.9999 32C40.2069 32 40.4111 31.9518 40.5962 31.8592C40.7813 31.7667 40.9424 31.6323 41.0666 31.4667L44.6666 26.6667H63.9999C65.0604 26.6655 66.0771 26.2437 66.827 25.4938C67.5769 24.7439 67.9987 23.7272 67.9999 22.6667V4C67.9987 2.9395 67.5769 1.92278 66.827 1.17289C66.0771 0.423001 65.0604 0.00119105 63.9999 0H15.9999C14.9394 0.00119105 13.9227 0.423001 13.1728 1.17289C12.4229 1.92278 12.0011 2.9395 11.9999 4V22.6667C12.0011 23.7272 12.4229 24.7439 13.1728 25.4938C13.9227 26.2437 14.9394 26.6655 15.9999 26.6667ZM14.6666 4C14.667 3.64651 14.8076 3.30763 15.0576 3.05768C15.3076 2.80773 15.6464 2.66711 15.9999 2.66667H63.9999C64.3534 2.66711 64.6923 2.80773 64.9422 3.05768C65.1922 3.30763 65.3328 3.64651 65.3333 4V22.6667C65.3328 23.0202 65.1922 23.359 64.9422 23.609C64.6923 23.8589 64.3534 23.9996 63.9999 24H43.9999C43.7929 24 43.5888 24.0482 43.4036 24.1408C43.2185 24.2333 43.0574 24.3677 42.9333 24.5333L39.9999 28.4445L37.0666 24.5333C36.9424 24.3677 36.7813 24.2333 36.5962 24.1408C36.4111 24.0482 36.2069 24 35.9999 24H15.9999C15.6464 23.9996 15.3076 23.8589 15.0576 23.609C14.8076 23.359 14.667 23.0202 14.6666 22.6667V4Z" fill="#F1721B"/>
<path d="M26.6667 21.3333H32.0001C34.1218 21.3333 36.1566 20.4904 37.6569 18.9901C39.1572 17.4898 40.0001 15.455 40.0001 13.3333C40.0001 11.2115 39.1572 9.17669 37.6569 7.6764C36.1566 6.17611 34.1218 5.33325 32.0001 5.33325H26.6667C24.545 5.33325 22.5102 6.17611 21.0099 7.6764C19.5096 9.17669 18.6667 11.2115 18.6667 13.3333C18.6667 15.455 19.5096 17.4898 21.0099 18.9901C22.5102 20.4904 24.545 21.3333 26.6667 21.3333ZM37.1646 11.9999H34.5536C34.3048 10.5296 33.6488 9.15846 32.6599 8.04225C33.7203 8.1761 34.7163 8.62471 35.5193 9.33017C36.3222 10.0356 36.8953 10.9656 37.1646 11.9999ZM34.5536 14.6666H37.1646C36.8953 15.701 36.3222 16.6309 35.5193 17.3363C34.7163 18.0418 33.7203 18.4904 32.6599 18.6243C33.6487 17.508 34.3049 16.1369 34.5536 14.6666ZM26.6667 7.99992C27.7216 7.99992 28.7527 8.31271 29.6298 8.89875C30.5069 9.48478 31.1904 10.3177 31.5941 11.2923C31.9978 12.2668 32.1034 13.3392 31.8976 14.3737C31.6918 15.4083 31.1839 16.3586 30.438 17.1045C29.6921 17.8504 28.7418 18.3583 27.7072 18.5641C26.6727 18.7699 25.6003 18.6643 24.6258 18.2606C23.6512 17.8569 22.8183 17.1734 22.2322 16.2963C21.6462 15.4192 21.3334 14.3881 21.3334 13.3333C21.335 11.9193 21.8975 10.5637 22.8973 9.56382C23.8972 8.56398 25.2528 8.00155 26.6667 7.99992ZM50.6667 13.8854L52.3906 15.6094C52.6407 15.8594 52.9798 15.9998 53.3334 15.9998C53.687 15.9998 54.0261 15.8594 54.2763 15.6094L60.0001 9.88559V13.3333H62.6667V6.66659C62.6667 6.31296 62.5263 5.97382 62.2762 5.72378C62.0262 5.47373 61.687 5.33325 61.3334 5.33325H54.6667V7.99992H58.1144L53.3334 12.7811L51.6096 11.0571C51.3595 10.8071 51.0203 10.6667 50.6667 10.6667C50.3132 10.6667 49.974 10.8071 49.7239 11.0571L41.7239 19.0571L43.6096 20.9428L50.6667 13.8854Z" fill="#F1721B"/>
</svg>
