<svg width="80" height="80" viewBox="0 0 80 80" fill="none" xmlns="http://www.w3.org/2000/svg">
<path fill-rule="evenodd" clip-rule="evenodd" d="M34.5314 79.9976C32.9175 79.9976 31.5224 78.7931 31.2848 77.1957L30.0356 68.7687C30.0073 68.5758 29.8803 68.4135 29.7039 68.3499C28.7605 67.9971 27.8265 67.5924 26.9231 67.1454C26.749 67.0607 26.542 67.0795 26.382 67.1948L19.4936 72.1635C18.1809 73.1116 16.3976 72.9681 15.2519 71.8224L7.84826 64.4188C6.70725 63.2778 6.5708 61.4404 7.53301 60.1417L12.7675 53.0887C12.8828 52.9334 12.904 52.724 12.824 52.5429C12.4499 51.7147 12.1112 50.8608 11.8147 50.0044C11.7489 49.8139 11.5865 49.6727 11.3913 49.6421L2.75724 48.2447C1.15748 47.9859 0 46.6237 0 45.0051V34.5337C0 32.9175 1.20218 31.5248 2.80194 31.2872L11.6077 29.9815C11.8006 29.9532 11.9629 29.8168 12.0359 29.6286C12.337 28.8122 12.6805 28.0006 13.0522 27.2148C13.1392 27.0337 13.1204 26.8243 13.0051 26.6643L7.83414 19.5007C6.88605 18.1879 7.02955 16.4046 8.17527 15.2589L15.5789 7.85532C16.7199 6.71431 18.5573 6.57786 19.8559 7.54007L26.9302 12.7887C27.0878 12.9063 27.2995 12.9252 27.4854 12.8381C28.3041 12.4546 29.151 12.1017 30.0074 11.7912C30.1956 11.723 30.3297 11.563 30.3626 11.3701L31.7553 2.75959C32.0141 1.15983 33.3763 0 34.9949 0H45.4639C47.0778 0 48.4729 1.20218 48.7105 2.80194L49.9668 11.2689C49.995 11.4642 50.1267 11.6289 50.3102 11.6924C51.2583 12.0241 52.1994 12.4123 53.1075 12.8381C53.2792 12.9181 53.4839 12.8969 53.6462 12.7817L60.5017 7.83179C61.8144 6.88369 63.5977 7.0272 64.7434 8.17292L72.147 15.5765C73.288 16.7175 73.4245 18.5549 72.4623 19.8536L67.5195 26.5185C67.4018 26.6784 67.3807 26.8925 67.4701 27.0807C67.9359 28.0523 68.3547 29.0593 68.7146 30.0803C68.7828 30.2708 68.9452 30.412 69.1381 30.4402L77.2404 31.7506C78.8402 32.0094 80 33.3716 80 34.9902V45.4615C80 47.0754 78.7955 48.4705 77.1981 48.7081L69.1098 49.908C68.9122 49.9362 68.7475 50.075 68.6817 50.2702C68.3076 51.3219 67.8677 52.3617 67.3783 53.3663C67.2889 53.5498 67.3054 53.7639 67.4207 53.9238L72.1659 60.5017C73.114 61.8144 72.9704 63.5977 71.8247 64.7434L64.4211 72.147C63.2801 73.288 61.4427 73.4245 60.1441 72.4623L53.5027 67.5359C53.3451 67.4207 53.1334 67.3995 52.9475 67.4842C51.9688 67.9359 50.9525 68.3429 49.9268 68.6864C49.7339 68.7522 49.5951 68.9122 49.5621 69.1051L48.247 77.2404C47.9882 78.8402 46.6261 80 45.0075 80L34.5314 79.9976ZM28.1394 64.6823C28.9604 65.0869 29.8097 65.4563 30.6661 65.7762C31.7765 66.1926 32.5764 67.1831 32.7505 68.3664L33.9997 76.7958C34.0397 77.0569 34.2655 77.2545 34.529 77.2545H45.0004C45.2663 77.2545 45.4874 77.0663 45.5298 76.8028L46.8449 68.6675C47.0401 67.4654 47.8824 66.4749 49.0445 66.0844C49.9762 65.7715 50.9007 65.4021 51.79 64.9928C52.8887 64.4846 54.1685 64.6164 55.1331 65.3316L61.7721 70.2555C61.9838 70.4132 62.285 70.3896 62.4708 70.2038L69.8744 62.8002C70.0603 62.6143 70.0862 62.3226 69.9309 62.1085L65.1833 55.5283C64.4729 54.5449 64.367 53.251 64.901 52.157C65.3457 51.2442 65.7456 50.3008 66.0844 49.3457C66.4938 48.1929 67.4983 47.3671 68.6981 47.1907L76.7864 45.9909C77.0475 45.9509 77.2451 45.725 77.2451 45.4615V34.9902C77.2451 34.7243 77.0546 34.5032 76.7934 34.4608L68.6911 33.1504C67.503 32.9575 66.5173 32.1294 66.1173 30.9907C65.7927 30.0662 65.4116 29.151 64.9881 28.2688C64.4564 27.1607 64.5764 25.8621 65.3057 24.881L70.2485 18.2161C70.4061 18.0044 70.3826 17.7033 70.1967 17.5174L62.7931 10.1138C62.6073 9.9256 62.3155 9.90207 62.1015 10.0573L55.2436 15.0049C54.2744 15.7036 53.0063 15.8236 51.9312 15.3201C51.1054 14.9319 50.2514 14.5814 49.3904 14.2803C48.2447 13.8756 47.4189 12.8758 47.2401 11.6689L45.9862 3.20423C45.9462 2.9431 45.7203 2.74548 45.4568 2.74548H34.9854C34.7196 2.74548 34.4985 2.93369 34.4561 3.19718L33.0634 11.8077C32.8752 12.9816 32.0565 13.965 30.9343 14.372C30.1579 14.652 29.3886 14.9719 28.6428 15.3225C27.5442 15.84 26.2573 15.7106 25.2857 14.9907L18.2091 9.7421C17.9974 9.58447 17.6962 9.608 17.5104 9.79385L10.1115 17.1998C9.9256 17.3857 9.89972 17.6774 10.055 17.8915L15.226 25.0575C15.9247 26.0268 16.0423 27.3066 15.5271 28.3911C15.1884 29.104 14.8778 29.8427 14.6026 30.5861C14.1838 31.7153 13.1886 32.527 12.0029 32.7011L3.19718 34.0068C2.93604 34.0468 2.73842 34.2726 2.73842 34.5361V45.0051C2.73842 45.271 2.92663 45.4921 3.19012 45.5345L11.8241 46.9319C13.0193 47.1248 14.005 47.9576 14.4049 49.1057C14.6731 49.8844 14.9813 50.6584 15.3225 51.4113C15.8141 52.4982 15.68 53.7686 14.9696 54.7237L9.73739 61.7768C9.57977 61.9885 9.60329 62.2897 9.78915 62.4755L17.1904 69.8791C17.3763 70.0673 17.668 70.0909 17.8821 69.9356L24.7705 64.9669C25.7962 64.2329 27.0854 64.16 28.1394 64.6823Z" fill="#F1721B"/>
<path fill-rule="evenodd" clip-rule="evenodd" d="M39.9941 62.8591C27.3889 62.8591 17.1316 52.6041 17.1316 39.9966C17.1316 27.389 27.3866 17.134 39.9941 17.134C52.6017 17.134 62.8566 27.389 62.8566 39.9966C62.8566 52.6041 52.5993 62.8591 39.9941 62.8591ZM39.9941 19.8819C28.9016 19.8819 19.8794 28.9041 19.8794 39.9966C19.8794 51.089 28.9016 60.1112 39.9941 60.1112C51.0866 60.1112 60.1088 51.089 60.1088 39.9966C60.1088 28.9041 51.0842 19.8819 39.9941 19.8819Z" fill="#F1721B"/>
<path fill-rule="evenodd" clip-rule="evenodd" d="M44.7511 62.3296C43.9935 62.3296 43.3772 61.7156 43.3772 60.9557V48.5504C43.3772 48.0305 43.6689 47.5576 44.13 47.3247C49.6515 44.5299 50.7784 37.3474 46.8167 32.9786V38.3943C46.8167 38.933 46.5038 39.42 46.0144 39.6435L40.5658 42.1349C40.2035 42.3019 39.7871 42.3019 39.4225 42.1349L33.9738 39.6435C33.4845 39.42 33.1716 38.9307 33.1716 38.3943V32.981C29.2075 37.3474 30.3367 44.5346 35.8583 47.3271C36.3194 47.5623 36.6111 48.0352 36.6111 48.5528V60.958C36.6111 61.7156 35.9971 62.3319 35.2372 62.3319C34.4773 62.3319 33.8633 61.7179 33.8633 60.958V49.3644C26.182 44.7745 26.0997 33.5903 33.835 28.918C34.7502 28.3652 35.9194 29.0239 35.9194 30.092V37.5121L39.9941 39.3753L44.0688 37.5121V30.092C44.0688 29.0239 45.2381 28.3652 46.1532 28.918C53.8956 33.5973 53.7968 44.7792 46.125 49.3644V60.958C46.125 61.7156 45.5086 62.3296 44.7511 62.3296Z" fill="#F1721B"/>
</svg>
