<svg width="80" height="80" viewBox="0 0 80 80" fill="none" xmlns="http://www.w3.org/2000/svg">
<path d="M63.384 2.86609C63.2679 2.75002 63.1301 2.65795 62.9784 2.59514C62.8267 2.53232 62.6642 2.49999 62.5 2.5H58.75C58.5859 2.49999 58.4233 2.53232 58.2717 2.59514C58.12 2.65795 57.9822 2.75002 57.8661 2.86609L55.3661 5.36609C55.2501 5.48217 55.158 5.61997 55.0952 5.77163C55.0323 5.92329 55 6.08584 55 6.25C55 6.41416 55.0323 6.57671 55.0952 6.72837C55.158 6.88003 55.2501 7.01783 55.3661 7.13391L55.7322 7.5L53.75 9.48219L53.384 9.11609C53.1495 8.88174 52.8316 8.75008 52.5 8.75008C52.1685 8.75008 51.8506 8.88174 51.6161 9.11609L37.8661 22.8661C37.6788 23.0533 37.5558 23.2953 37.5149 23.557C37.4739 23.8186 37.5172 24.0866 37.6384 24.3221C37.7596 24.5576 37.9524 24.7486 38.1892 24.8674C38.4259 24.9862 38.6943 25.0267 38.9555 24.9831C41.4901 24.5623 44.0921 24.8716 46.4574 25.875C44.6536 29.5254 42.0958 32.7516 38.953 35.3404C35.8102 37.9292 32.1538 39.8218 28.2255 40.893L26.2249 41.4386C24.2376 41.2565 22.2346 41.5139 20.358 42.1927C18.4814 42.8715 16.7771 43.9549 15.3661 45.3661L2.86614 57.8661C2.75006 57.9822 2.65798 58.12 2.59516 58.2716C2.53233 58.4233 2.5 58.5858 2.5 58.75C2.5 58.9142 2.53233 59.0767 2.59516 59.2284C2.65798 59.38 2.75006 59.5178 2.86614 59.6339L7.86614 64.6339C7.98221 64.75 8.12002 64.8421 8.27168 64.9049C8.42334 64.9677 8.58589 65 8.75005 65C8.9142 65 9.07675 64.9677 9.22841 64.9049C9.38008 64.8421 9.51788 64.75 9.63395 64.6339L12.5 61.7678L18.2322 67.5L15.3661 70.3661C15.2501 70.4822 15.158 70.62 15.0952 70.7716C15.0323 70.9233 15 71.0858 15 71.25C15 71.4142 15.0323 71.5767 15.0952 71.7284C15.158 71.88 15.2501 72.0178 15.3661 72.1339L20.3661 77.1339C20.4822 77.25 20.62 77.3421 20.7717 77.4049C20.9233 77.4677 21.0859 77.5 21.25 77.5C21.4142 77.5 21.5768 77.4677 21.7284 77.4049C21.8801 77.3421 22.0179 77.25 22.134 77.1339L34.6339 64.6339C36.0453 63.2229 37.1287 61.5186 37.8075 59.6419C38.4863 57.7653 38.7438 55.7622 38.5616 53.7748L39.1072 51.7745C40.1784 47.8462 42.0709 44.1899 44.6596 41.0472C47.2484 37.9044 50.4745 35.3466 54.1249 33.5428C55.128 35.908 55.4375 38.5098 55.0171 41.0444C54.9735 41.3056 55.014 41.574 55.1328 41.8107C55.2516 42.0474 55.4425 42.2403 55.678 42.3615C55.9135 42.4827 56.1814 42.526 56.4431 42.4851C56.7048 42.4442 56.9467 42.3212 57.134 42.1339L70.884 28.3839C71 28.2678 71.0921 28.13 71.1549 27.9784C71.2178 27.8267 71.2501 27.6642 71.2501 27.5C71.2501 27.3358 71.2178 27.1733 71.1549 27.0216C71.0921 26.87 71 26.7322 70.884 26.6161L70.5179 26.25L72.5 24.2678L72.8661 24.6339C72.9822 24.75 73.12 24.8421 73.2717 24.9049C73.4233 24.9677 73.5859 25 73.75 25C73.9142 25 74.0768 24.9677 74.2284 24.9049C74.3801 24.8421 74.5179 24.75 74.634 24.6339L77.134 22.1339C77.25 22.0178 77.3421 21.88 77.4049 21.7284C77.4677 21.5767 77.5001 21.4142 77.5 21.25V17.5C77.5001 17.3358 77.4677 17.1733 77.4049 17.0216C77.3421 16.87 77.25 16.7322 77.134 16.6161L63.384 2.86609ZM29.1161 59.1161C28.1639 60.0683 26.9109 60.6609 25.5706 60.7929C24.2304 60.9249 22.8859 60.5881 21.7662 59.8399C20.6465 59.0917 19.8208 57.9783 19.4299 56.6896C19.039 55.4009 19.107 54.0165 19.6224 52.7723C20.1378 51.5282 21.0686 50.5012 22.2563 49.8663C23.444 49.2315 24.815 49.0282 26.1359 49.2909C27.4567 49.5536 28.6455 50.2662 29.4999 51.3072C30.3542 52.3483 30.8211 53.6533 30.8211 55C30.8204 56.5437 30.2072 58.024 29.1161 59.1161ZM19.1161 60.8839C20.5249 62.2888 22.3897 63.1435 24.3736 63.2934C26.3575 63.4433 28.3296 62.8786 29.9335 61.7012L31.9316 63.6994C29.7938 65.4034 27.1032 66.2605 24.3736 66.1069C21.644 65.9533 19.0666 64.7998 17.1334 62.8666C15.2003 60.9334 14.0468 58.356 13.8932 55.6264C13.7396 52.8968 14.5966 50.2063 16.3007 48.0684L18.298 50.0658C17.1185 51.669 16.5525 53.6418 16.7026 55.6264C16.8527 57.6111 17.709 59.4763 19.1161 60.8839ZM11.5824 52.6855C11.3205 54.2174 11.3205 55.7826 11.5824 57.3145L9.26786 55L11.5824 52.6855ZM8.75005 61.9825L5.5177 58.75L7.50005 56.7678L10.7322 60L8.75005 61.9825ZM21.25 74.4825L18.0177 71.25L20 69.2678L23.2322 72.5L21.25 74.4825ZM25 70.7325L22.6855 68.4178C24.217 68.6849 25.7831 68.6849 27.3146 68.4178L25 70.7325ZM33.6994 61.9317L31.7021 59.9344C32.882 58.3314 33.4484 56.3586 33.2984 54.3739C33.1484 52.3891 32.292 50.5239 30.8846 49.1164C29.4771 47.709 27.6119 46.8526 25.6271 46.7026C23.6424 46.5526 21.6696 47.119 20.0666 48.2989L18.0685 46.3008C20.2063 44.5967 22.8969 43.7397 25.6265 43.8933C28.3561 44.0469 30.9335 45.2004 32.8667 47.1335C34.7998 49.0667 35.9533 51.6441 36.1069 54.3737C36.2605 57.1033 35.4035 59.7939 33.6994 61.9317ZM44.7566 37.2258C41.401 40.5847 38.8522 44.6619 37.3027 49.1498C35.9594 46.32 33.6801 44.0407 30.8502 42.6975C35.3381 41.148 39.4154 38.5993 42.7743 35.2438C45.1678 32.8536 47.156 30.0895 48.661 27.0602C49.4098 27.5561 50.1071 28.1257 50.7425 28.7605L51.2397 29.2577C51.8745 29.8931 52.444 30.5904 52.9399 31.3392C49.9106 32.8441 47.1467 34.8323 44.7566 37.2258ZM57.681 38.0514C57.4866 34.0732 55.821 30.3091 53.0075 27.4898L52.5104 26.9927C49.6912 24.1789 45.927 22.5133 41.9486 22.3192L52.5 11.7678L68.2322 27.5L57.681 38.0514ZM68.75 24.4822L55.5179 11.25L57.5 9.26781L70.7322 22.5L68.75 24.4822ZM75 20.7322L73.75 21.9822L58.0177 6.25L59.2677 5H61.9822L75 18.0177V20.7322Z" fill="#F1721B"/>
<path d="M56.2505 27.5C56.9922 27.5 57.7172 27.2801 58.3339 26.868C58.9506 26.456 59.4312 25.8703 59.715 25.1851C59.9989 24.4998 60.0731 23.7458 59.9284 23.0184C59.7837 22.291 59.4266 21.6228 58.9021 21.0983C58.3777 20.5739 57.7095 20.2167 56.9821 20.0721C56.2546 19.9274 55.5007 20.0016 54.8154 20.2855C54.1302 20.5693 53.5445 21.0499 53.1325 21.6666C52.7204 22.2833 52.5005 23.0083 52.5005 23.75C52.5016 24.7442 52.897 25.6974 53.6001 26.4004C54.3031 27.1034 55.2563 27.4989 56.2505 27.5ZM56.2505 22.5C56.4977 22.5 56.7394 22.5733 56.945 22.7107C57.1505 22.848 57.3107 23.0432 57.4053 23.2716C57.4999 23.5001 57.5247 23.7514 57.4765 23.9939C57.4282 24.2363 57.3092 24.4591 57.1344 24.6339C56.9596 24.8087 56.7368 24.9277 56.4944 24.976C56.2519 25.0242 56.0005 24.9995 55.7721 24.9049C55.5437 24.8102 55.3485 24.65 55.2112 24.4445C55.0738 24.2389 55.0005 23.9972 55.0005 23.75C55.0009 23.4186 55.1327 23.1009 55.3671 22.8666C55.6014 22.6322 55.9191 22.5004 56.2505 22.5ZM41.6166 49.6339L52.5005 60.5178V68.75C52.5005 68.9142 52.5328 69.0767 52.5956 69.2284C52.6584 69.38 52.7505 69.5178 52.8666 69.6339L59.1166 75.8839C59.2327 76 59.3705 76.092 59.5221 76.1549C59.6738 76.2177 59.8363 76.25 60.0005 76.25H68.7505C68.9146 76.25 69.0772 76.2177 69.2289 76.1549C69.3805 76.092 69.5183 76 69.6344 75.8839L75.8844 69.6339C76.0005 69.5178 76.0925 69.38 76.1554 69.2284C76.2182 69.0767 76.2505 68.9142 76.2505 68.75V60C76.2505 59.8358 76.2182 59.6733 76.1554 59.5216C76.0925 59.37 76.0005 59.2322 75.8844 59.1161L69.6344 52.8661C69.5183 52.75 69.3805 52.6579 69.2289 52.5951C69.0772 52.5323 68.9146 52.5 68.7505 52.5H60.5183L48.3844 40.3661L46.6166 42.1339L58.2328 53.75L53.7505 58.2323L43.3844 47.8661L41.6166 49.6339ZM60.5183 55H68.2328L73.7505 60.5177V68.2322L68.2328 73.75H60.5183L55.0005 68.2323V60.5178L60.5183 55ZM9.11658 25.8839C9.23266 26 9.37046 26.092 9.52212 26.1549C9.67379 26.2177 9.83633 26.25 10.0005 26.25H18.2327L30.3666 38.3839L32.1344 36.6161L20.5181 25L25.0005 20.5177L37.8666 33.3839L39.6344 31.6161L26.2505 18.2322V10C26.2505 9.83585 26.2182 9.6733 26.1554 9.52164C26.0925 9.36998 26.0005 9.23217 25.8844 9.11609L19.6344 2.86609C19.5183 2.75002 19.3805 2.65795 19.2289 2.59514C19.0772 2.53232 18.9146 2.49999 18.7505 2.5H10.0005C9.75325 2.49999 9.51157 2.5733 9.306 2.71065C9.10043 2.848 8.94021 3.04323 8.8456 3.27164C8.75098 3.50005 8.72623 3.75139 8.77446 3.99388C8.8227 4.23636 8.94176 4.45909 9.11658 4.63391L16.2505 11.7677V14.4822L14.4828 16.25H11.7683L4.63439 9.11609C4.45958 8.94127 4.23685 8.82221 3.99436 8.77398C3.75188 8.72574 3.50054 8.75049 3.27213 8.84511C3.04371 8.93972 2.84849 9.09994 2.71114 9.30551C2.57379 9.51108 2.50048 9.75277 2.50049 10V18.75C2.50048 18.9142 2.53281 19.0767 2.59562 19.2284C2.65844 19.38 2.75051 19.5178 2.86658 19.6339L9.11658 25.8839ZM5.00049 13.0177L10.3666 18.3839C10.4827 18.5 10.6205 18.592 10.7721 18.6549C10.9238 18.7177 11.0863 18.75 11.2505 18.75H15.0005C15.1646 18.75 15.3272 18.7177 15.4789 18.6549C15.6305 18.592 15.7683 18.5 15.8844 18.3839L18.3844 15.8839C18.5005 15.7678 18.5925 15.63 18.6554 15.4784C18.7182 15.3267 18.7505 15.1642 18.7505 15V11.25C18.7505 11.0858 18.7182 10.9233 18.6554 10.7716C18.5925 10.62 18.5005 10.4822 18.3844 10.3661L13.0181 5H18.2327L23.7505 10.5177V18.2322L18.2327 23.75H10.5181L5.00049 18.2323V13.0177Z" fill="#F1721B"/>
<path d="M59.1161 67.1339L61.6161 69.6339C61.7322 69.7499 61.87 69.842 62.0217 69.9048C62.1733 69.9676 62.3359 70 62.5 70H66.25C66.4142 70 66.5767 69.9676 66.7284 69.9048C66.8801 69.842 67.0179 69.7499 67.1339 69.6339L69.6339 67.1339C69.75 67.0178 69.8421 66.88 69.9049 66.7283C69.9677 66.5767 70 66.4141 70 66.25V62.5C70 62.3358 69.9677 62.1733 69.9049 62.0216C69.8421 61.8699 69.75 61.7321 69.6339 61.6161L67.1339 59.1161C67.0179 59 66.8801 58.9079 66.7284 58.8451C66.5767 58.7823 66.4142 58.75 66.25 58.75H62.5C62.3359 58.75 62.1733 58.7823 62.0217 58.8451C61.87 58.9079 61.7322 59 61.6161 59.1161L59.1161 61.6161C59 61.7321 58.908 61.8699 58.8452 62.0216C58.7823 62.1733 58.75 62.3358 58.75 62.5V66.25C58.75 66.4141 58.7823 66.5767 58.8452 66.7283C58.908 66.88 59 67.0178 59.1161 67.1339ZM61.25 63.0176L63.0177 61.25H65.7322L67.5 63.0176V65.7321L65.7324 67.5H63.0178L61.25 65.7323V63.0176ZM24.116 25.884L25.8836 24.1162L34.0089 32.2407L32.2413 34.0087L24.116 25.884ZM44.741 46.509L46.5086 44.7412L54.6339 52.8657L52.8663 54.6337L44.741 46.509Z" fill="#F1721B"/>
</svg>
