<svg width="80" height="80" viewBox="0 0 80 80" fill="none" xmlns="http://www.w3.org/2000/svg">
<g clip-path="url(#clip0_729_968)">
<path d="M70.7877 53.3294C70.2639 52.9816 69.6711 52.7514 69.0499 52.6546C68.4286 52.5578 67.7938 52.5967 67.1891 52.7686C67.1703 52.7741 67.1517 52.78 67.1335 52.7864L46.6594 59.986C46.2731 58.0219 45.1281 56.016 43.0913 55.11L29.2969 48.9435C25.9436 47.4463 23.0625 48.0332 20.6861 48.8041L12.0805 51.5897L11.6681 50.1799C11.5754 49.8615 11.4209 49.5646 11.2134 49.306C11.0059 49.0474 10.7494 48.8322 10.4588 48.6727C10.1681 48.5132 9.8488 48.4126 9.5192 48.3765C9.1896 48.3405 8.85613 48.3697 8.53783 48.4625L1.80876 50.4294H1.80689C1.16516 50.6193 0.624768 51.0556 0.303995 51.6429C-0.0167773 52.2303 -0.091807 52.9208 0.0953274 53.5633L7.29689 78.1804C7.44968 78.7044 7.76802 79.1648 8.20431 79.4929C8.6406 79.8209 9.17136 79.9988 9.7172 80C9.9579 79.9999 10.1973 79.9653 10.4283 79.8975L17.1524 77.9275C17.7952 77.74 18.3372 77.3049 18.6592 76.7178C18.9813 76.1307 19.057 75.4398 18.8697 74.7969L18.3228 72.9302L20.9814 72.2318L32.8636 76.5755C34.6386 77.2244 36.4855 77.8143 38.3711 77.8141C39.654 77.8229 40.92 77.5211 42.061 76.9344L68.463 63.4454L68.4899 63.4311C68.7286 63.3005 68.9791 63.1724 69.2444 63.0368C71.2311 62.0202 74.2335 60.4839 73.0292 56.3703C72.6757 55.1183 71.879 54.0376 70.7877 53.3294ZM16.7408 75.6663C16.7201 75.7048 16.6918 75.7388 16.6578 75.7662C16.6237 75.7937 16.5846 75.814 16.5425 75.8261L9.8133 77.7969C9.77083 77.8092 9.72633 77.813 9.68239 77.808C9.63846 77.803 9.59596 77.7893 9.55736 77.7677C9.51912 77.7469 9.48541 77.7187 9.45818 77.6847C9.43096 77.6508 9.41076 77.6117 9.39877 77.5699L2.19564 52.9486C2.17167 52.8629 2.182 52.7711 2.22446 52.6929C2.26693 52.6146 2.33818 52.5559 2.42314 52.5293L9.15173 50.5625C9.19419 50.5502 9.23867 50.5464 9.2826 50.5514C9.32653 50.5563 9.36904 50.57 9.40767 50.5914C9.44596 50.6123 9.47972 50.6406 9.507 50.6746C9.53428 50.7086 9.55453 50.7477 9.56658 50.7896L15.8938 72.4177C15.8953 72.4238 15.896 72.4299 15.8977 72.4358C15.903 72.4564 15.9102 72.476 15.9167 72.496L16.77 75.4125C16.782 75.4547 16.7855 75.4989 16.7804 75.5424C16.7752 75.586 16.7615 75.6281 16.74 75.6663H16.7408ZM68.2491 61.0882C67.9872 61.2222 67.7163 61.3608 67.4555 61.503L41.0656 74.9852C38.9011 76.0924 36.7777 75.6757 33.6156 74.5196L21.4114 70.0588C21.2018 69.9822 20.9737 69.9715 20.7578 70.0283L17.7089 70.8293L12.6952 53.6908L21.3603 50.886C24.2063 49.9622 26.2467 49.9788 28.4036 50.9414L42.2005 57.1088C43.6214 57.741 44.6167 59.5382 44.6208 61.4793C44.6245 62.0473 44.5257 62.6113 44.3292 63.1443C43.4058 65.5707 41.0308 65.6616 39.2777 65.0036L29.9875 61.5169C29.853 61.4664 29.7099 61.4429 29.5663 61.4478C29.4227 61.4526 29.2815 61.4857 29.1506 61.5451C29.0198 61.6045 28.902 61.6892 28.8039 61.7941C28.7058 61.8991 28.6293 62.0223 28.5788 62.1568C28.5284 62.2913 28.5049 62.4345 28.5097 62.5781C28.5146 62.7217 28.5476 62.8629 28.6071 62.9937C28.6665 63.1245 28.7511 63.2423 28.856 63.3404C28.961 63.4386 29.0843 63.515 29.2188 63.5655L38.5078 67.0516C39.3406 67.3732 40.2245 67.5419 41.1172 67.5496C43.491 67.5496 45.4922 66.2408 46.376 63.9183C46.5741 63.3869 46.7047 62.8326 46.7647 62.2686L67.8288 54.8624C68.1313 54.7852 68.4467 54.7732 68.7542 54.8273C69.0617 54.8813 69.3541 55.0001 69.6122 55.1758C70.256 55.5989 70.7242 56.2414 70.9296 56.9839C71.5938 59.2544 70.4672 59.9532 68.2483 61.0879L68.2491 61.0882ZM23.197 25.4688L13.7344 22.9354C13.5956 22.8981 13.4509 22.8886 13.3084 22.9074C13.1659 22.9261 13.0286 22.9728 12.9042 23.0446C12.7797 23.1165 12.6707 23.2122 12.5832 23.3262C12.4958 23.4402 12.4317 23.5703 12.3945 23.7091L12.0313 25.0641C11.5877 26.7172 11.8638 27.9724 12.875 28.901C13.7086 29.6666 14.9324 30.1032 16.6369 30.56L21.4875 31.858C21.6263 31.8952 21.7711 31.9047 21.9136 31.8859C22.0561 31.8671 22.1935 31.8204 22.3179 31.7485C22.4424 31.6766 22.5514 31.5808 22.6388 31.4668C22.7262 31.3527 22.7903 31.2225 22.8274 31.0836L23.9703 26.8088C24.0076 26.67 24.0171 26.5253 23.9984 26.3828C23.9797 26.2404 23.9331 26.103 23.8613 25.9786C23.7895 25.8542 23.6939 25.7451 23.5799 25.6576C23.4659 25.5701 23.3358 25.506 23.197 25.4688ZM20.9967 29.4608L17.2038 28.4452C16.0392 28.1327 14.8883 27.7768 14.3556 27.288C14.172 27.1194 13.83 26.8055 14.1453 25.6307L14.2255 25.3318L21.5744 27.3005L20.9967 29.4608ZM21.096 32.5027C19.7033 31.4786 17.138 31.3839 15.9181 31.7655C14.6297 32.1596 13.6902 32.7935 13.0461 33.703C12.0985 35.038 11.9356 36.1454 12.5617 36.9946C13.0911 37.7119 14.0264 37.9477 15.0263 37.9477C16.3086 37.9477 17.6964 37.5607 18.4683 37.3071C20.1347 36.7589 22.1211 35.81 22.1211 34.4024C22.115 34.0268 22.0187 33.6582 21.8403 33.3276C21.6619 32.997 21.4066 32.7142 21.096 32.503V32.5027ZM17.197 35.4063C15.7314 35.8094 14.7899 35.7911 14.4194 35.7008C14.5228 35.4397 14.6613 35.1938 14.8313 34.9702L14.8322 34.9688C15.1858 34.4688 15.7505 34.1061 16.5645 33.8571C16.9581 33.7341 17.8302 33.69 18.6699 33.8508C19.2894 33.9693 19.6508 34.1529 19.8191 34.2819C19.4327 34.5689 18.5283 35.0396 17.197 35.4063ZM79.7969 22.0755C79.7672 21.8595 79.6736 21.6572 79.5281 21.4948C79.3827 21.3323 79.1919 21.2171 78.9805 21.1638L75.3966 20.2602C74.9839 18.7413 74.3785 17.2815 73.595 15.9164L75.4922 12.7441C75.6044 12.5566 75.6579 12.3398 75.6458 12.1216C75.6336 11.9035 75.5564 11.6939 75.4241 11.52C74.1701 9.86991 72.697 8.39839 71.0455 7.14613C70.8719 7.01448 70.6629 6.93769 70.4453 6.92561C70.2277 6.91353 70.0115 6.96671 69.8244 7.07832L66.6502 8.97191C65.2851 8.18846 63.8253 7.58302 62.3064 7.17035L61.4028 3.5866C61.3494 3.37431 61.2335 3.18293 61.07 3.03724C60.9066 2.89155 60.7033 2.79825 60.4863 2.76941C58.4354 2.49077 56.3562 2.49077 54.3053 2.76941C54.1224 2.79408 53.9487 2.8647 53.8005 2.97467C53.6523 3.08465 53.5343 3.23041 53.4577 3.39832C51.5437 1.51818 49.0054 0.407108 46.3256 0.276445C39.7659 -0.0921485 33.1907 -0.0921485 26.631 0.276445C22.8525 0.490352 19.5625 2.50816 17.6045 5.81254C16.2238 8.14676 14.9063 10.78 13.6592 13.4624H8.89783C8.15087 13.4633 7.43478 13.7604 6.90661 14.2886C6.37845 14.8168 6.08135 15.5329 6.08048 16.2799V16.6164C6.08207 17.7806 6.46579 18.9121 7.17272 19.8371C7.87964 20.7621 8.87068 21.4294 9.99361 21.7366C9.49361 22.8893 9.01017 23.9966 8.53064 25.0693C8.20469 25.7899 8.03829 26.5725 8.04283 27.3635V36.5954C8.04336 37.3512 8.24772 38.093 8.6344 38.7425C9.02108 39.392 9.57576 39.9252 10.24 40.286V44.0597C10.2401 44.603 10.4556 45.124 10.8393 45.5085C11.2231 45.8931 11.7437 46.1097 12.2869 46.1108H19.3792C19.923 46.1102 20.4443 45.8938 20.8288 45.5093C21.2133 45.1248 21.4296 44.6035 21.4302 44.0597V40.7941H41.0541C41.8864 41.6661 42.7869 42.4703 43.747 43.1991C43.9209 43.3309 44.1302 43.4076 44.3481 43.4195C44.5659 43.4314 44.7824 43.3779 44.9695 43.2658L48.1424 41.3686C49.5075 42.152 50.9673 42.7574 52.4861 43.17L53.3899 46.7544C53.4432 46.9657 53.5584 47.1563 53.7207 47.3016C53.883 47.447 54.0851 47.5406 54.301 47.5704C56.3549 47.8558 58.4384 47.8558 60.4924 47.5704C60.7082 47.5406 60.9103 47.447 61.0726 47.3016C61.2349 47.1563 61.3501 46.9657 61.4035 46.7544L62.3074 43.17C63.8262 42.7574 65.286 42.152 66.6511 41.3686L69.8239 43.2658C70.0111 43.3779 70.2276 43.4314 70.4454 43.4195C70.6633 43.4075 70.8726 43.3307 71.0464 43.1989C72.6981 41.9453 74.1712 40.4723 75.425 38.8207C75.5573 38.6468 75.6346 38.4372 75.6467 38.2191C75.6588 38.0009 75.6054 37.7841 75.4931 37.5966L73.596 34.4238C74.3794 33.0587 74.9848 31.5989 75.3975 30.08L78.9814 29.1764C79.1928 29.1232 79.3834 29.008 79.5288 28.8457C79.6743 28.6833 79.7679 28.4813 79.7977 28.2654C80.0771 26.2112 80.0771 24.1286 79.7977 22.0744L79.7969 22.0755ZM8.26892 16.6164V16.2799C8.27111 16.1138 8.33807 15.9551 8.45554 15.8376C8.57301 15.7201 8.73171 15.6532 8.89783 15.651H12.6599C12.0481 17.0129 11.4549 18.3697 10.8814 19.6904C10.1526 19.57 9.49013 19.1951 9.01177 18.6322C8.5334 18.0694 8.27018 17.3551 8.26892 16.6164ZM19.2416 43.9219H12.4291V40.7949H19.2416V43.9219ZM24.0053 38.6061H12.2425C12.0494 38.6059 11.8574 38.5778 11.6724 38.5227C11.6592 38.5183 11.646 38.5149 11.6327 38.511C11.2263 38.3812 10.8716 38.1257 10.6198 37.7814C10.3679 37.4371 10.232 37.0216 10.2314 36.595V27.3635C10.226 26.8788 10.328 26.3989 10.5302 25.9583C11.146 24.5808 11.7655 23.1519 12.4208 21.6389C14.5256 16.7841 16.9113 11.2814 19.4869 6.92801C21.0669 4.26129 23.7156 2.63332 26.7538 2.46129C33.231 2.09723 39.7236 2.09723 46.2008 2.46129C47.4876 2.52404 48.745 2.86796 49.8846 3.46887C51.0241 4.06977 52.0182 4.91306 52.7969 5.93941L52.486 7.17035C52.4805 7.17176 52.4752 7.17348 52.4703 7.17504C51.0305 4.91332 48.7967 3.5866 46.1449 3.43488C39.7059 3.07082 33.2515 3.07082 26.8125 3.43488C24.0625 3.59223 21.761 5.0091 20.3281 7.42551C18.7155 10.1511 17.282 12.7144 15.9488 15.2577L15.5641 15.9844C15.4755 16.1511 15.4315 16.3379 15.4365 16.5266C15.4415 16.7154 15.4953 16.8996 15.5926 17.0614C15.6899 17.2232 15.8274 17.357 15.9917 17.4499C16.1561 17.5428 16.3417 17.5915 16.5305 17.5914H40.3483C39.9628 18.4553 39.6444 19.3476 39.396 20.2604L35.8125 21.1638C35.601 21.2171 35.4103 21.3323 35.2649 21.4948C35.1194 21.6572 35.0258 21.8595 34.9961 22.0755C34.9363 22.5114 34.8916 22.9538 34.8572 23.3986H30.4138C27.3458 23.3986 24.8499 25.5768 24.8499 28.2539V28.7539C24.8499 30.6836 26.6206 32.2539 28.797 32.2539H40.1352C40.4419 33.0007 40.7968 33.7267 41.1977 34.4274L40.4624 35.656H28.3894C26.2905 35.6563 24.5206 36.91 24.0053 38.6064V38.6061ZM39.3003 12.7441L40.8906 15.4027H18.3478C19.5341 13.1749 20.8036 10.9207 22.2119 8.54051C23.2603 6.77145 24.9385 5.7341 26.9363 5.61973C33.2924 5.26012 39.6637 5.26012 46.0199 5.61973C46.861 5.65924 47.683 5.88492 48.4264 6.28049C49.1698 6.67605 49.8162 7.23165 50.3189 7.90723C49.5709 8.21424 48.8439 8.56989 48.1424 8.97191L44.9688 7.07816C44.7816 6.96655 44.5654 6.91337 44.3479 6.92546C44.1303 6.93754 43.9213 7.01433 43.7477 7.14598C42.0945 8.39716 40.6208 9.86922 39.3678 11.521C39.2358 11.6948 39.1588 11.9042 39.1468 12.1222C39.1348 12.3402 39.1882 12.5568 39.3003 12.7441ZM34.793 25.5878C34.8075 26.4842 34.8753 27.3789 34.9961 28.2672C35.0259 28.4831 35.1195 28.6852 35.265 28.8476C35.4104 29.0099 35.601 29.1251 35.8124 29.1783L39.3345 30.0663H28.7969C27.8438 30.0663 27.0381 29.466 27.0381 28.7552V28.2552C27.0381 26.7847 28.5524 25.5883 30.4131 25.5883L34.793 25.5878ZM28.3894 37.8454H39.1942C39.1184 38.097 39.1361 38.3676 39.2441 38.6072H26.4799C26.7311 38.359 27.0295 38.1637 27.3575 38.0327C27.6854 37.9017 28.0363 37.8378 28.3894 37.8446V37.8454ZM77.7155 27.2405L74.2286 28.1193C74.0337 28.1682 73.856 28.27 73.7152 28.4133C73.5743 28.5567 73.4756 28.736 73.43 28.9318C73.0248 30.6709 72.3361 32.3316 71.3916 33.8471C71.2854 34.0177 71.2282 34.2143 71.2264 34.4152C71.2246 34.6162 71.2782 34.8138 71.3813 34.9863L73.2271 38.0743C72.3521 39.146 71.3716 40.127 70.3003 41.0025L67.2114 39.1563C67.0389 39.0532 66.8413 38.9996 66.6403 39.0015C66.4394 39.0033 66.2428 39.0605 66.0722 39.1668C64.5568 40.1113 62.8963 40.7999 61.1572 41.205C60.9615 41.2508 60.7822 41.3494 60.6389 41.4903C60.4956 41.6312 60.3938 41.8088 60.3447 42.0036L59.4656 45.4914C58.09 45.6325 56.7035 45.6325 55.3278 45.4914L54.4488 42.0036C54.3997 41.8088 54.2979 41.6312 54.1546 41.4903C54.0113 41.3494 53.832 41.2508 53.6363 41.205C51.8972 40.7999 50.2367 40.1113 48.7213 39.1668C48.5507 39.0605 48.354 39.0033 48.153 39.0014C47.9521 38.9996 47.7544 39.0532 47.5819 39.1563L44.493 41.003C43.4209 40.1286 42.4402 39.1478 41.5658 38.0757L43.4116 34.9921C43.5149 34.8197 43.5687 34.6222 43.5671 34.4213C43.5655 34.2204 43.5086 34.0237 43.4027 33.853C42.4582 32.335 41.769 30.6723 41.3625 28.9313C41.3169 28.7356 41.2182 28.5562 41.0774 28.4129C40.9365 28.2695 40.7588 28.1678 40.5639 28.1188L37.077 27.24C37.0088 26.561 36.9745 25.8678 36.9745 25.171C36.9745 24.4741 37.0089 23.7833 37.0772 23.1018L40.5639 22.223C40.7588 22.174 40.9365 22.0723 41.0774 21.9289C41.2182 21.7856 41.3169 21.6062 41.3625 21.4105C41.7678 19.6714 42.4564 18.0108 43.401 16.4954C43.5072 16.3247 43.5643 16.1282 43.5661 15.9272C43.568 15.7262 43.5144 15.5286 43.4113 15.3561L41.5649 12.2668C42.4397 11.1958 43.4208 10.2161 44.493 9.3427L47.581 11.1864C47.7535 11.2894 47.9511 11.343 48.1521 11.3411C48.3531 11.3393 48.5497 11.2821 48.7203 11.176C49.847 10.4743 51.0551 9.91288 52.3178 9.5041C52.3303 9.50004 52.3427 9.49613 52.355 9.4916C52.7762 9.35618 53.2029 9.23822 53.6353 9.1377C53.8309 9.09203 54.0102 8.99343 54.1535 8.85268C54.2968 8.71194 54.3986 8.53448 54.4478 8.33973L55.0286 6.03613C55.0424 5.99291 55.0535 5.94886 55.0619 5.90426L55.3267 4.85379C56.0233 4.78457 56.7164 4.74957 57.3958 4.74957C58.0869 4.74966 58.7776 4.78444 59.4652 4.85379L60.3438 8.3391C60.393 8.53385 60.4948 8.71131 60.6381 8.85206C60.7814 8.9928 60.9607 9.09141 61.1563 9.13707C62.8954 9.54218 64.5559 10.2308 66.0713 11.1754C66.2419 11.2816 66.4384 11.3388 66.6394 11.3406C66.8404 11.3425 67.038 11.2889 67.2105 11.1858L70.2985 9.34207C71.3699 10.2164 72.3508 11.1963 73.2261 12.2669L71.3813 15.3555C71.2782 15.528 71.2246 15.7256 71.2264 15.9266C71.2282 16.1275 71.2854 16.3241 71.3916 16.4947C72.3361 18.0102 73.0248 19.6708 73.43 21.4099C73.4756 21.6056 73.5743 21.785 73.7152 21.9283C73.856 22.0716 74.0337 22.1734 74.2286 22.2224L77.7153 23.1011C77.7836 23.7822 77.8178 24.4761 77.8178 25.1703C77.8178 25.868 77.7836 26.5611 77.7155 27.2397V27.2405ZM60.6153 10.8652C60.4489 10.7943 60.2675 10.7658 60.0874 10.7822C59.9073 10.7986 59.734 10.8594 59.5832 10.9592C59.4323 11.0589 59.3086 11.1946 59.223 11.3539C59.1374 11.5133 59.0927 11.6914 59.0928 11.8722V17.8358L57.3961 18.8133L55.6997 17.8358V11.8722C55.6998 11.6914 55.6551 11.5133 55.5695 11.3539C55.484 11.1946 55.3602 11.0589 55.2093 10.9592C55.0585 10.8594 54.8852 10.7986 54.7051 10.7822C54.525 10.7658 54.3436 10.7943 54.1772 10.8652C52.6991 11.5071 51.439 12.5643 50.5502 13.9085C49.6613 15.2527 49.1818 16.8261 49.1699 18.4375C49.1647 19.8513 49.526 21.2423 50.2185 22.4749C50.911 23.7074 51.9111 24.7395 53.1213 25.4705V36.888C53.1227 37.598 53.4057 38.2784 53.9082 38.78C54.4107 39.2816 55.0916 39.5634 55.8016 39.5636H58.991C59.7003 39.5628 60.3805 39.2807 60.8821 38.7791C61.3837 38.2775 61.6659 37.5974 61.6667 36.888V25.4708C62.878 24.7406 63.8792 23.7088 64.5725 22.476C65.2659 21.2433 65.6277 19.8519 65.6227 18.4375C65.6107 16.8261 65.1312 15.2527 64.2424 13.9085C63.3535 12.5643 62.0935 11.5071 60.6153 10.8652ZM60.0841 23.8457C59.9019 23.9363 59.7486 24.0761 59.6415 24.2491C59.5343 24.4222 59.4776 24.6217 59.4777 24.8252V36.8877C59.4775 37.0169 59.4261 37.1407 59.3347 37.2321C59.2434 37.3234 59.1195 37.3748 58.9903 37.3749H55.8016C55.6718 37.3753 55.5472 37.3243 55.455 37.233C55.3628 37.1416 55.3106 37.0175 55.3099 36.8877V24.8252C55.3099 24.6218 55.2533 24.4225 55.1463 24.2495C55.0393 24.0766 54.8862 23.9369 54.7042 23.8461C53.6909 23.3549 52.8382 22.5855 52.2457 21.6278C51.6533 20.6701 51.3455 19.5636 51.3583 18.4375C51.3647 17.5589 51.5603 16.692 51.9318 15.8958C52.3033 15.0996 52.842 14.3928 53.5113 13.8235V18.4688C53.5112 18.661 53.5619 18.8499 53.6581 19.0163C53.7543 19.1827 53.8927 19.3208 54.0592 19.4168L56.85 21.0247C57.0161 21.1205 57.2045 21.1709 57.3962 21.1709C57.5879 21.1709 57.7763 21.1205 57.9424 21.0247L60.7333 19.4168C60.8999 19.3208 61.0382 19.1827 61.1344 19.0163C61.2306 18.8499 61.2813 18.661 61.2813 18.4688V13.8235C61.9505 14.3928 62.4892 15.0996 62.8607 15.8958C63.2323 16.692 63.4279 17.5589 63.4342 18.4375C63.447 19.564 63.1388 20.6708 62.5457 21.6285C61.9525 22.5862 61.0989 23.3553 60.0847 23.8457H60.0841Z" fill="#F1721B"/>
</g>
<defs>
<clipPath id="clip0_729_968">
<rect width="80" height="80" fill="white"/>
</clipPath>
</defs>
</svg>
