<svg width="39" height="39" viewBox="0 0 39 39" fill="none" xmlns="http://www.w3.org/2000/svg">
<path d="M30.76 4.73086C24.5117 -1.57695 14.3813 -1.57695 8.13306 4.73086C6.64956 6.21829 5.47076 7.99507 4.66594 9.95675C3.86113 11.9184 3.44653 14.0254 3.44653 16.1539C3.44653 18.2824 3.86113 20.3894 4.66594 22.3511C5.47076 24.3128 6.64956 26.0895 8.13306 27.577L19.4455 39L30.76 27.577C32.2435 26.0895 33.4223 24.3128 34.2271 22.3511C35.0319 20.3894 35.4465 18.2824 35.4465 16.1539C35.4465 14.0254 35.0319 11.9184 34.2271 9.95675C33.4223 7.99507 32.2435 6.21829 30.76 4.73086ZM19.4455 21.5524C18.1095 21.5524 16.8554 21.0187 15.9094 20.0499C14.9728 19.0866 14.4469 17.7815 14.4469 16.4208C14.4469 15.06 14.9728 13.7549 15.9094 12.7917C16.8534 11.8228 18.1095 11.2891 19.4455 11.2891C20.7816 11.2891 22.0376 11.8228 22.9817 12.7917C23.9182 13.7549 24.4442 15.06 24.4442 16.4208C24.4442 17.7815 23.9182 19.0866 22.9817 20.0499C22.0376 21.0187 20.7816 21.5524 19.4455 21.5524Z" fill="#F1721B"/>
</svg>
