<svg width="26" height="21" viewBox="0 0 26 21" fill="none" xmlns="http://www.w3.org/2000/svg">
<path d="M2.99987 20.5C2.31237 20.5 1.72404 20.2554 1.23487 19.7663C0.745704 19.2771 0.500704 18.6883 0.49987 18V3C0.49987 2.3125 0.74487 1.72417 1.23487 1.235C1.72487 0.745833 2.3132 0.500833 2.99987 0.5H22.9999C23.6874 0.5 24.2761 0.745 24.7661 1.235C25.2561 1.725 25.5007 2.31333 25.4999 3V18C25.4999 18.6875 25.2553 19.2763 24.7661 19.7663C24.2769 20.2563 23.6882 20.5008 22.9999 20.5H2.99987ZM12.9999 11.5313C13.104 11.5313 13.2136 11.5154 13.3286 11.4838C13.4436 11.4521 13.5528 11.4054 13.6561 11.3438L22.4999 5.8125C22.6665 5.70834 22.7915 5.57834 22.8749 5.4225C22.9582 5.26667 22.9999 5.09459 22.9999 4.90625C22.9999 4.48958 22.8228 4.17708 22.4686 3.96875C22.1145 3.76042 21.7499 3.77083 21.3749 4L12.9999 9.25L4.62487 4C4.24987 3.77083 3.88529 3.76583 3.53112 3.985C3.17695 4.20417 2.99987 4.51125 2.99987 4.90625C2.99987 5.11459 3.04154 5.29708 3.12487 5.45375C3.2082 5.61042 3.3332 5.73 3.49987 5.8125L12.3436 11.3438C12.4478 11.4063 12.5574 11.4533 12.6724 11.485C12.7874 11.5167 12.8965 11.5321 12.9999 11.5313Z" fill="#F1721B"/>
</svg>
