<svg width="24" height="29" viewBox="0 0 24 29" fill="none" xmlns="http://www.w3.org/2000/svg">
<path d="M19.6857 4.09355C15.2227 -0.412041 7.98666 -0.412041 3.52361 4.09355C2.46397 5.15599 1.62197 6.42512 1.0471 7.82632C0.472233 9.22752 0.176094 10.7325 0.176094 12.2529C0.176094 13.7732 0.472233 15.2782 1.0471 16.6794C1.62197 18.0806 2.46397 19.3497 3.52361 20.4122L11.604 28.5715L19.6857 20.4122C20.7454 19.3497 21.5874 18.0806 22.1622 16.6794C22.7371 15.2782 23.0332 13.7732 23.0332 12.2529C23.0332 10.7325 22.7371 9.22752 22.1622 7.82632C21.5874 6.42512 20.7454 5.15599 19.6857 4.09355ZM11.604 16.1089C10.6496 16.1089 9.75387 15.7277 9.07813 15.0357C8.40918 14.3477 8.03348 13.4154 8.03348 12.4435C8.03348 11.4715 8.40918 10.5393 9.07813 9.85125C9.75245 9.15921 10.6496 8.77801 11.604 8.77801C12.5583 8.77801 13.4555 9.15921 14.1298 9.85125C14.7987 10.5393 15.1744 11.4715 15.1744 12.4435C15.1744 13.4154 14.7987 14.3477 14.1298 15.0357C13.4555 15.7277 12.5583 16.1089 11.604 16.1089Z" fill="#F1721B"/>
</svg>
