<svg width="26" height="26" viewBox="0 0 26 26" fill="none" xmlns="http://www.w3.org/2000/svg">
<path fill-rule="evenodd" clip-rule="evenodd" d="M18.7281 25.828C16.9281 25.7617 11.8269 25.0567 6.48435 19.7155C1.1431 14.373 0.439351 9.27296 0.371851 7.47171C0.271851 4.72671 2.37435 2.06046 4.8031 1.01921C5.09557 0.892916 5.41585 0.844833 5.73251 0.879677C6.04918 0.914521 6.35134 1.03109 6.60935 1.21796C8.60935 2.67546 9.98935 4.88046 11.1744 6.61421C11.4351 6.99512 11.5466 7.45864 11.4875 7.91645C11.4285 8.37427 11.2032 8.79437 10.8544 9.09671L8.4156 10.908C8.29778 10.993 8.21484 11.118 8.1822 11.2596C8.14955 11.4012 8.16942 11.5499 8.2381 11.678C8.7906 12.6817 9.7731 14.1767 10.8981 15.3017C12.0231 16.4267 13.5894 17.4742 14.6631 18.0892C14.7977 18.1648 14.9562 18.1859 15.1059 18.1482C15.2556 18.1106 15.3853 18.017 15.4681 17.8867L17.0556 15.4705C17.3475 15.0828 17.778 14.823 18.2571 14.7457C18.7361 14.6683 19.2266 14.7793 19.6256 15.0555C21.3844 16.273 23.4369 17.6292 24.9394 19.553C25.1414 19.8128 25.2699 20.1222 25.3115 20.4488C25.353 20.7753 25.3061 21.107 25.1756 21.4092C24.1294 23.8505 21.4819 25.9292 18.7281 25.828Z" fill="#F1721B"/>
</svg>
