<svg width="39" height="40" viewBox="0 0 39 40" fill="none" xmlns="http://www.w3.org/2000/svg">
<g clip-path="url(#clip0_1_41)">
<path d="M19.5 0.5C14.3295 0.5 9.36609 2.55573 5.71289 6.21137C2.05664 9.86701 0 14.8304 0 20C0 25.1696 2.05664 30.133 5.71289 33.7886C9.36609 37.4443 14.3295 39.5 19.5 39.5C24.6705 39.5 29.6339 37.4443 33.2871 33.7886C36.9434 30.133 39 25.1696 39 20C39 14.8304 36.9434 9.86701 33.2871 6.21137C29.6339 2.55573 24.6705 0.5 19.5 0.5Z" fill="url(#paint0_linear_1_41)"/>
<path d="M8.82681 19.794C14.5123 17.3175 18.3026 15.6847 20.1977 14.8959C25.6151 12.6433 26.7394 12.2521 27.4737 12.2389C27.6352 12.2363 27.9947 12.2762 28.2293 12.466C28.4243 12.626 28.4791 12.8423 28.5066 12.994C28.5309 13.1458 28.5645 13.4916 28.537 13.7615C28.2445 16.845 26.974 24.3275 26.3281 27.7811C26.0569 29.2425 25.5176 29.7324 24.9966 29.7802C23.8631 29.8844 23.0039 29.0319 21.907 28.3131C20.1917 27.1879 19.2227 26.4877 17.5561 25.3899C15.6305 24.1212 16.8797 23.4238 17.9766 22.2843C18.263 21.986 23.2538 17.4476 23.3482 17.036C23.3604 16.9845 23.3726 16.7926 23.2568 16.6914C23.1441 16.59 22.9765 16.6247 22.8546 16.6521C22.6809 16.6911 19.9418 18.5034 14.6281 22.0886C13.8511 22.6231 13.1473 22.8836 12.5135 22.8699C11.8188 22.8549 10.4782 22.4762 9.48189 22.1526C8.26314 21.7556 7.29118 21.5457 7.37649 20.8714C7.41915 20.5204 7.9036 20.1612 8.82681 19.794Z" fill="white"/>
</g>
<defs>
<linearGradient id="paint0_linear_1_41" x1="1950" y1="0.5" x2="1950" y2="3900.5" gradientUnits="userSpaceOnUse">
<stop stop-color="#2AABEE"/>
<stop offset="1" stop-color="#229ED9"/>
</linearGradient>
<clipPath id="clip0_1_41">
<rect width="39" height="39" fill="white" transform="translate(0 0.5)"/>
</clipPath>
</defs>
</svg>
