<svg width="39" height="39" viewBox="0 0 39 39" fill="none" xmlns="http://www.w3.org/2000/svg">
<g clip-path="url(#clip0_138_472)">
<path d="M19.5 0C14.3295 0 9.36609 2.05573 5.71289 5.71137C2.05664 9.36701 0 14.3304 0 19.5C0 24.6696 2.05664 29.633 5.71289 33.2886C9.36609 36.9443 14.3295 39 19.5 39C24.6705 39 29.6339 36.9443 33.2871 33.2886C36.9434 29.633 39 24.6696 39 19.5C39 14.3304 36.9434 9.36701 33.2871 5.71137C29.6339 2.05573 24.6705 0 19.5 0Z" fill="#F1721B"/>
<path d="M8.82681 19.294C14.5123 16.8175 18.3026 15.1847 20.1977 14.3959C25.6151 12.1433 26.7394 11.7521 27.4737 11.7389C27.6352 11.7363 27.9947 11.7762 28.2293 11.966C28.4243 12.126 28.4791 12.3423 28.5066 12.494C28.5309 12.6458 28.5645 12.9916 28.537 13.2615C28.2445 16.345 26.974 23.8275 26.3281 27.2811C26.0569 28.7425 25.5176 29.2324 24.9966 29.2802C23.8631 29.3844 23.0039 28.5319 21.907 27.8131C20.1917 26.6879 19.2227 25.9877 17.5561 24.8899C15.6305 23.6212 16.8797 22.9238 17.9766 21.7843C18.263 21.486 23.2538 16.9476 23.3482 16.536C23.3604 16.4845 23.3726 16.2926 23.2568 16.1914C23.1441 16.09 22.9765 16.1247 22.8546 16.1521C22.6809 16.1911 19.9418 18.0034 14.6281 21.5886C13.8511 22.1231 13.1473 22.3836 12.5135 22.3699C11.8188 22.3549 10.4782 21.9762 9.48189 21.6526C8.26314 21.2556 7.29118 21.0457 7.37649 20.3714C7.41915 20.0204 7.9036 19.6612 8.82681 19.294Z" fill="white"/>
</g>
<defs>
<clipPath id="clip0_138_472">
<rect width="39" height="39" fill="white"/>
</clipPath>
</defs>
</svg>
