<svg width="26" height="25" viewBox="0 0 26 25" fill="none" xmlns="http://www.w3.org/2000/svg">
<path d="M19.25 1.67487C21.1353 2.76343 22.7037 4.32552 23.7998 6.20649C24.8959 8.08746 25.4817 10.2221 25.4993 12.399C25.5169 14.576 24.9656 16.7198 23.9 18.6182C22.8345 20.5167 21.2916 22.1039 19.4241 23.2228C17.5566 24.3416 15.4292 24.9534 13.2526 24.9974C11.076 25.0415 8.92569 24.5163 7.01444 23.4739C5.1032 22.4315 3.49734 20.908 2.35583 19.0543C1.21433 17.2005 0.576762 15.0808 0.50625 12.9049L0.5 12.4999L0.50625 12.0949C0.576254 9.9361 1.20443 7.83232 2.32955 5.98861C3.45466 4.1449 5.03832 2.62418 6.92612 1.57472C8.81391 0.525257 10.9414 -0.0171385 13.1013 0.000412807C15.2611 0.0179641 17.3795 0.594863 19.25 1.67487ZM13 4.99986C12.6938 4.99991 12.3983 5.11231 12.1695 5.31576C11.9407 5.51921 11.7946 5.79955 11.7588 6.10361L11.75 6.24986V12.4999L11.7613 12.6636C11.7898 12.8805 11.8747 13.0861 12.0075 13.2599L12.1163 13.3849L15.8663 17.1349L15.9838 17.2374C16.203 17.4074 16.4725 17.4998 16.75 17.4998C17.0275 17.4998 17.297 17.4074 17.5163 17.2374L17.6338 17.1336L17.7375 17.0161C17.9076 16.7969 17.9999 16.5273 17.9999 16.2499C17.9999 15.9724 17.9076 15.7028 17.7375 15.4836L17.6338 15.3661L14.25 11.9811V6.24986L14.2413 6.10361C14.2054 5.79955 14.0593 5.51921 13.8305 5.31576C13.6017 5.11231 13.3062 4.99991 13 4.99986Z" fill="#F1721B"/>
</svg>
