<svg width="39" height="39" viewBox="0 0 39 39" fill="none" xmlns="http://www.w3.org/2000/svg">
<g clip-path="url(#clip0_138_461)">
<mask id="mask0_138_461" style="mask-type:luminance" maskUnits="userSpaceOnUse" x="0" y="0" width="39" height="39">
<path d="M0 0H39V39H0V0Z" fill="white"/>
</mask>
<g mask="url(#mask0_138_461)">
<mask id="mask1_138_461" style="mask-type:luminance" maskUnits="userSpaceOnUse" x="0" y="0" width="39" height="39">
<path d="M39 0H0V39H39V0Z" fill="white"/>
</mask>
<g mask="url(#mask1_138_461)">
<path d="M0 18.72C0 9.89473 0 5.48285 2.74219 2.74219C5.48438 0 9.89473 0 18.72 0H20.28C29.1053 0 33.5171 0 36.2578 2.74219C39 5.48438 39 9.89473 39 18.72V20.28C39 29.1053 39 33.5171 36.2578 36.2578C33.5156 39 29.1053 39 20.28 39H18.72C9.89473 39 5.48285 39 2.74219 36.2578C0 33.5156 0 29.1068 0 20.2815V18.7215V18.72Z" fill="#F1721B"/>
<path d="M20.7508 28.0965C11.8631 28.0965 6.79306 22.0028 6.5813 11.8628H11.0343C11.1806 19.3048 14.462 22.4568 17.0625 23.1073V11.8628H21.255V18.281C23.822 18.0053 26.5201 15.0803 27.4295 11.8628H31.622C30.9243 15.8268 27.9993 18.7518 25.9183 19.9553C27.9993 20.9303 31.3295 23.4805 32.597 28.0965H27.9825C26.9923 25.0085 24.5213 22.6198 21.255 22.2953V28.0965H20.7523H20.7508Z" fill="white"/>
</g>
</g>
</g>
<defs>
<clipPath id="clip0_138_461">
<rect width="39" height="39" fill="white"/>
</clipPath>
</defs>
</svg>
