<svg width="39" height="40" viewBox="0 0 39 40" fill="none" xmlns="http://www.w3.org/2000/svg">
<g clip-path="url(#clip0_1_30)">
<mask id="mask0_1_30" style="mask-type:luminance" maskUnits="userSpaceOnUse" x="0" y="0" width="39" height="40">
<path d="M0 0.5H39V39.5H0V0.5Z" fill="white"/>
</mask>
<g mask="url(#mask0_1_30)">
<mask id="mask1_1_30" style="mask-type:luminance" maskUnits="userSpaceOnUse" x="0" y="0" width="39" height="40">
<path d="M39 0.5H0V39.5H39V0.5Z" fill="white"/>
</mask>
<g mask="url(#mask1_1_30)">
<path d="M0 19.22C0 10.3947 0 5.98285 2.74219 3.24219C5.48438 0.5 9.89473 0.5 18.72 0.5H20.28C29.1053 0.5 33.5171 0.5 36.2578 3.24219C39 5.98438 39 10.3947 39 19.22V20.78C39 29.6053 39 34.0171 36.2578 36.7578C33.5156 39.5 29.1053 39.5 20.28 39.5H18.72C9.89473 39.5 5.48285 39.5 2.74219 36.7578C0 34.0156 0 29.6068 0 20.7815V19.2215V19.22Z" fill="#0077FF"/>
<path d="M20.7507 28.5965C11.863 28.5965 6.793 22.5028 6.58124 12.3628H11.0342C11.1805 19.8048 14.462 22.9568 17.0625 23.6073V12.3628H21.255V18.781C23.822 18.5053 26.52 15.5803 27.4295 12.3628H31.622C30.9242 16.3268 27.9992 19.2518 25.9182 20.4553C27.9992 21.4303 31.3295 23.9805 32.597 28.5965H27.9825C26.9923 25.5085 24.5212 23.1198 21.255 22.7953V28.5965H20.7523H20.7507Z" fill="white"/>
</g>
</g>
</g>
<defs>
<clipPath id="clip0_1_30">
<rect width="39" height="39" fill="white" transform="translate(0 0.5)"/>
</clipPath>
</defs>
</svg>
