<svg width="39" height="41" viewBox="0 0 39 41" fill="none" xmlns="http://www.w3.org/2000/svg">
<g clip-path="url(#clip0_1_25)">
<path d="M0.832275 20.2608C0.831287 23.6216 1.69419 26.9032 3.3349 29.7955L0.675293 39.678L10.6129 37.0262C13.3507 38.5449 16.4335 39.3465 19.5708 39.3473H19.5791C29.9102 39.3473 38.3201 30.7916 38.3245 20.2759C38.3264 15.1801 36.3783 10.3885 32.8388 6.7836C29.2999 3.17888 24.5932 1.19264 19.5783 1.19043C9.2459 1.19043 0.836619 9.74547 0.832275 20.2608Z" fill="url(#paint0_linear_1_25)"/>
<path d="M0.163103 20.2544C0.161918 23.7362 1.05583 27.1351 2.75498 30.1309L0 40.3678L10.2941 37.6209C13.1304 39.1948 16.3237 40.0245 19.5734 40.0257H19.5816C30.2835 40.0257 38.9955 31.1624 39 20.2703C39.0018 14.9914 36.9835 10.0277 33.3177 6.29352C29.6512 2.55978 24.7761 0.50221 19.5816 0.5C8.87786 0.5 0.167447 9.36189 0.163103 20.2544ZM6.29329 29.6151L5.90903 28.9941C4.2932 26.3795 3.44037 23.3582 3.44155 20.2556C3.44511 11.2022 10.685 3.83665 19.5878 3.83665C23.8989 3.83846 27.9509 5.54878 30.9983 8.65212C34.0457 11.7557 35.7225 15.8813 35.7214 20.2691C35.7174 29.3227 28.4773 36.6893 19.5816 36.6893H19.5753C16.6788 36.6877 13.8381 35.8961 11.3605 34.4002L10.7709 34.0443L4.66226 35.6743L6.29329 29.6151Z" fill="#60D669"/>
<path d="M14.7283 11.9961C14.3648 11.1738 13.9823 11.1573 13.6366 11.1428C13.3536 11.1306 13.03 11.1314 12.7067 11.1314C12.3831 11.1314 11.8574 11.2552 11.413 11.7491C10.9681 12.2432 9.7146 13.4377 9.7146 15.8671C9.7146 18.2966 11.4534 20.6442 11.6957 20.9739C11.9384 21.3031 15.0524 26.4479 19.984 28.4271C24.0827 30.0719 24.9168 29.7448 25.8063 29.6624C26.6959 29.5802 28.677 28.4683 29.0812 27.3152C29.4856 26.1624 29.4856 25.1741 29.3644 24.9677C29.2431 24.7619 28.9195 24.6383 28.4343 24.3916C27.949 24.1446 25.5636 22.9499 25.119 22.7851C24.6741 22.6205 24.3506 22.5384 24.027 23.0327C23.7036 23.5264 22.7743 24.6383 22.4911 24.9677C22.2082 25.2977 21.925 25.3389 21.4399 25.0919C20.9545 24.8441 19.3918 24.3232 17.538 22.6412C16.0956 21.3324 15.1219 19.7161 14.8387 19.2218C14.5558 18.7281 14.8085 18.4606 15.0518 18.2144C15.2698 17.9932 15.5371 17.6379 15.7798 17.3497C16.0219 17.0613 16.1027 16.8556 16.2644 16.5262C16.4263 16.1966 16.3454 15.9083 16.2241 15.6613C16.1027 15.4143 15.1598 12.9725 14.7283 11.9961Z" fill="white"/>
</g>
<defs>
<linearGradient id="paint0_linear_1_25" x1="1883.13" y1="3849.96" x2="1883.13" y2="1.19226" gradientUnits="userSpaceOnUse">
<stop stop-color="#1FAF38"/>
<stop offset="1" stop-color="#60D669"/>
</linearGradient>
<clipPath id="clip0_1_25">
<rect width="39" height="40" fill="white" transform="translate(0 0.5)"/>
</clipPath>
</defs>
</svg>
