<svg width="39" height="40" viewBox="0 0 39 40" fill="none" xmlns="http://www.w3.org/2000/svg">
<g clip-path="url(#clip0_138_456)">
<path d="M0.832275 19.7608C0.831287 23.1216 1.69419 26.4032 3.3349 29.2955L0.675293 39.178L10.6129 36.5262C13.3507 38.0449 16.4335 38.8465 19.5708 38.8473H19.5791C29.9102 38.8473 38.3201 30.2916 38.3245 19.7759C38.3264 14.6801 36.3783 9.88852 32.8388 6.2836C29.2999 2.67888 24.5932 0.69264 19.5783 0.69043C9.24591 0.69043 0.836619 9.24547 0.832275 19.7608Z" fill="#F1721B"/>
<path d="M0.163103 19.7544C0.161918 23.2362 1.05583 26.6351 2.75498 29.6309L0 39.8678L10.2941 37.1209C13.1304 38.6948 16.3237 39.5245 19.5734 39.5257H19.5816C30.2835 39.5257 38.9955 30.6624 39 19.7703C39.0018 14.4914 36.9835 9.52765 33.3177 5.79352C29.6512 2.05978 24.7761 0.0022105 19.5816 0C8.87786 0 0.167447 8.86189 0.163103 19.7544ZM6.29329 29.1151L5.90903 28.4941C4.2932 25.8795 3.44037 22.8582 3.44155 19.7556C3.44511 10.7022 10.685 3.33665 19.5878 3.33665C23.8989 3.33846 27.9509 5.04878 30.9983 8.15212C34.0457 11.2557 35.7225 15.3813 35.7214 19.7691C35.7174 28.8227 28.4773 36.1893 19.5816 36.1893H19.5753C16.6788 36.1877 13.8381 35.3961 11.3605 33.9002L10.7709 33.5443L4.66226 35.1743L6.29329 29.1151Z" fill="#F1721B"/>
<path d="M14.7283 11.4961C14.3648 10.6738 13.9823 10.6573 13.6366 10.6428C13.3536 10.6306 13.03 10.6314 12.7067 10.6314C12.3831 10.6314 11.8574 10.7552 11.413 11.2491C10.9681 11.7432 9.7146 12.9377 9.7146 15.3671C9.7146 17.7966 11.4534 20.1442 11.6957 20.4739C11.9384 20.8031 15.0524 25.9479 19.984 27.9271C24.0827 29.5719 24.9168 29.2448 25.8063 29.1624C26.6959 29.0802 28.677 27.9683 29.0812 26.8152C29.4856 25.6624 29.4856 24.6741 29.3644 24.4677C29.2431 24.2619 28.9195 24.1383 28.4343 23.8916C27.949 23.6446 25.5636 22.4499 25.119 22.2851C24.6741 22.1205 24.3506 22.0384 24.027 22.5327C23.7036 23.0264 22.7743 24.1383 22.4911 24.4677C22.2082 24.7977 21.925 24.8389 21.4399 24.5919C20.9545 24.3441 19.3918 23.8232 17.538 22.1412C16.0956 20.8324 15.1219 19.2161 14.8387 18.7218C14.5558 18.2281 14.8085 17.9606 15.0518 17.7144C15.2698 17.4932 15.5371 17.1379 15.7798 16.8497C16.0219 16.5613 16.1027 16.3556 16.2644 16.0262C16.4263 15.6966 16.3454 15.4083 16.2241 15.1613C16.1027 14.9143 15.1598 12.4725 14.7283 11.4961Z" fill="white"/>
</g>
<defs>
<clipPath id="clip0_138_456">
<rect width="39" height="40" fill="white"/>
</clipPath>
</defs>
</svg>
